<?xml version="1.0" encoding="UTF-8" standalone="no"?>
<svg
   xmlns:dc="http://purl.org/dc/elements/1.1/"
   xmlns:cc="http://creativecommons.org/ns#"
   xmlns:rdf="http://www.w3.org/1999/02/22-rdf-syntax-ns#"
   xmlns:svg="http://www.w3.org/2000/svg"
   xmlns="http://www.w3.org/2000/svg"
   xmlns:xlink="http://www.w3.org/1999/xlink"
   width="377.953"
   height="664.836"
   viewBox="0 0 100.00006 175.90452"
   version="1.1"
   id="svg8">
  <defs
     id="defs2">
    <linearGradient
       id="linearGradient1857">
      <stop
         style="stop-color:#ffa94f;stop-opacity:1"
         offset="0"
         id="stop1853" />
      <stop
         style="stop-color:#ff9215;stop-opacity:0.77872342"
         offset="1"
         id="stop1855" />
    </linearGradient>
    <linearGradient
       id="linearGradient831">
      <stop
         style="stop-color:#0088aa;stop-opacity:1"
         offset="0"
         id="stop827" />
      <stop
         style="stop-color:#00ffff;stop-opacity:0"
         offset="1"
         id="stop829" />
    </linearGradient>
    <linearGradient
       id="linearGradient821">
      <stop
         style="stop-color:#00ff88;stop-opacity:1;"
         offset="0"
         id="stop817" />
      <stop
         style="stop-color:#118866;stop-opacity:1"
         offset="1"
         id="stop819" />
    </linearGradient>
    <linearGradient
       xlink:href="#linearGradient821"
       id="linearGradient842"
       gradientUnits="userSpaceOnUse"
       x1="0"
       y1="-197"
       x2="-100"
       y2="-297"
       gradientTransform="matrix(0.99999988,0,0,1.7590454,-6.2686821e-5,346.53191)" />
    <linearGradient
       xlink:href="#linearGradient831"
       id="linearGradient844"
       gradientUnits="userSpaceOnUse"
       gradientTransform="matrix(1,0,0,1.7590451,6.2686831e-5,-346.53189)"
       x1="100"
       y1="297"
       x2="0"
       y2="197.00002" />
    <path
       d="m 64,42.28 v 11.21 c 0,3.02 -1.25,5.95 -3.54,7.91 -0.12,0.1 -0.24,0.2 -0.36,0.29 -1.2,0.94 -2.61,1.61 -4.15,1.92 v -4.49 c 2.41,-0.85 4.15,-3.25 4.15,-6.07 V 40.26 Z M 47.9,53.04 V 40.26 L 44,42.28 v 11.21 c 0,3.02 1.25,5.95 3.54,7.91 0.12,0.1 0.24,0.2 0.36,0.29 1.2,0.94 2.61,1.61 4.15,1.92 V 59.12 C 49.64,58.25 47.9,55.86 47.9,53.04 Z"
       id="SVGID_4_" />
    <linearGradient
       xlink:href="#linearGradient1857"
       id="linearGradient1863"
       gradientUnits="userSpaceOnUse"
       gradientTransform="rotate(-165.36937,1792.7347,-1400.2068)"
       x1="1711.674"
       y1="-1489.8567"
       x2="1790.757"
       y2="-1489.8567" />
  </defs>
  <metadata
     id="metadata5">
    <rdf:RDF>
      <cc:Work
         rdf:about="">
        <dc:format>image/svg+xml</dc:format>
        <dc:type
           rdf:resource="http://purl.org/dc/dcmitype/StillImage" />
        <dc:title></dc:title>
      </cc:Work>
    </rdf:RDF>
  </metadata>
  <rect
     style="opacity:1;fill:url(#linearGradient842);fill-opacity:1;stroke:none;stroke-width:0.31317067;stroke-opacity:0"
     id="rect827"
     width="99.999985"
     height="175.90453"
     x="-100.00007"
     y="-175.90451"
     transform="scale(-1)" />
  <path
     style="opacity:0.33000004;fill:#d9edff;fill-opacity:1;stroke:none;stroke-width:0.80937827;stroke-opacity:0"
     d="m 50.322383,55.841956 a 38.011871,38.011871 0 0 0 -25.465115,9.849513 l 4.345987,7.421269 33.220707,56.725692 A 38.011871,38.011871 0 0 0 88.334525,93.85409 38.011871,38.011871 0 0 0 50.322383,55.841956 Z"
     id="path829" />
  <rect
     style="opacity:1;fill:url(#linearGradient844);fill-opacity:1;stroke:none;stroke-width:0.35091418;stroke-opacity:0"
     id="rect831"
     width="100"
     height="175.90453"
     x="6.0555747e-05"
     y="-2.0449463e-06" />
  <path
     id="path833"
     d="M 4.226368e-7,23.246692 V 111.91989 L 22.399252,121.49386 29.202901,73.112482 Z"
     style="opacity:0.1;fill:#262626;fill-opacity:1;stroke:none;stroke-width:0.48896745px;stroke-linecap:butt;stroke-linejoin:miter;stroke-opacity:1" />
  <path
     style="opacity:0.33000004;fill:#ffffff;fill-opacity:1;stroke:none;stroke-width:0.26458329px;stroke-linecap:butt;stroke-linejoin:miter;stroke-opacity:1"
     d="M 22.399557,121.49357 69.2686,141.52631 29.203128,73.112632 Z"
     id="path836" />
  <path
     style="opacity:0.1;fill:#000000;fill-opacity:1;stroke:none;stroke-width:0.42353445;stroke-opacity:0"
     d="m 50.322383,73.962789 a 19.890993,19.890993 0 0 0 -15.928749,8.012972 l 4.34547,7.419696 A 12.425965,12.425965 0 0 1 50.322383,81.427979 12.425965,12.425965 0 0 1 62.748491,93.85409 12.425965,12.425965 0 0 1 50.322383,106.2802 12.425965,12.425965 0 0 1 48.543164,106.13711 l 4.345978,7.42072 A 19.890993,19.890993 0 0 0 70.21367,93.854122 19.890993,19.890993 0 0 0 50.322383,73.962831 Z"
     id="path838" />
  <circle
     r="12.425964"
     style="opacity:0.33000004;fill:#ffffff;fill-opacity:1;stroke:none;stroke-width:0.26458329;stroke-opacity:0"
     id="circle840"
     cx="50.322556"
     cy="93.854111" />
  <style
     id="style2"
     type="text/css">
	.st0{clip-path:url(#SVGID_1_);}
	.st1{fill:#304FFE;}
	.st2{opacity:0.2;}
	.st3{opacity:0.3;}
	.st4{opacity:0.3;fill:#FFFFFF;}
	.st5{fill:url(#SVGID_2_);}
	.st6{fill:#FAFAFA;}
	.st7{fill:#FFFFFF;}
</style>
</svg>
