<?xml version="1.0" encoding="UTF-8" standalone="no"?>
<svg
   xmlns:osb="http://www.openswatchbook.org/uri/2009/osb"
   xmlns:dc="http://purl.org/dc/elements/1.1/"
   xmlns:cc="http://creativecommons.org/ns#"
   xmlns:rdf="http://www.w3.org/1999/02/22-rdf-syntax-ns#"
   xmlns:svg="http://www.w3.org/2000/svg"
   xmlns="http://www.w3.org/2000/svg"
   id="svg114"
   preserveAspectRatio="xMidYMid meet"
   viewBox="0 0 1440.000000 2880.000000"
   height="2880.000000pt"
   width="1440.000000pt"
   version="1.0">
  <defs
     id="defs118">
    <linearGradient
       osb:paint="solid"
       id="linearGradient2999">
      <stop
         id="stop2997"
         offset="0"
         style="stop-color:#ff5bb2;stop-opacity:1;" />
    </linearGradient>
  </defs>
  <metadata
     id="metadata108">
Created by potrace 1.16, written by Peter Selinger 2001-2019
<rdf:RDF>
  <cc:Work
     rdf:about="">
    <dc:format>image/svg+xml</dc:format>
    <dc:type
       rdf:resource="http://purl.org/dc/dcmitype/StillImage" />
    <dc:title></dc:title>
  </cc:Work>
</rdf:RDF>
</metadata>
  <path
     d="M 420,810 0,0 v 2880 c 2117.9717,42.2104 -180,-360 1440,-1560 V 360 L 1140,330 720,0 H 0 Z"
     id="path110"
     style="fill:#2a363b;fill-opacity:1;stroke:none;stroke-width:0;stroke-miterlimit:4;stroke-dasharray:none" />
  <path
     id="path977"
     d="M 540,1860 0,2880 C 1390.7863,2741.1645 1356.4096,2238.9596 1440,1157.5 l -11.25,8.75 C 285.93922,55.226048 725.15029,1678.8753 540,1860 Z"
     style="fill:#000000;fill-opacity:1;stroke:#000000;stroke-width:0.75px;stroke-linecap:butt;stroke-linejoin:miter;stroke-opacity:1" />
  <path
     id="path1041"
     d="m 720,0 h 720 V 600 C 938.71984,535.02566 1002.017,215.64571 720,0 Z"
     style="fill:#99b898;fill-opacity:1;stroke:#000000;stroke-width:0.75px;stroke-linecap:butt;stroke-linejoin:miter;stroke-opacity:1" />
  <path
     id="path1043"
     d="M 0,0 C 397.21111,164.04282 967.5,502.5 778.34213,778.01242 570,1125 1091.1004,1306.8296 1244.4742,1536.9902 c 333.5144,567.145 74.221,1299.8092 -610.98041,1343.1909 -165,-15 -339.99301,2.9799 -442.55061,1.8893 L 0,2880 Z"
     style="mix-blend-mode:normal;fill:#e84a5f;fill-opacity:1;stroke:#000000;stroke-width:0.75;stroke-linecap:butt;stroke-linejoin:miter;stroke-opacity:1;stroke-miterlimit:4;stroke-dasharray:none" />
  <path
     id="path1045"
     d="M 0,2880 C 997.43576,2610.6812 1023.2504,1449.301 0,660 Z"
     style="opacity:0.999;fill:#ff847c;fill-opacity:1;stroke:#000000;stroke-width:0.75px;stroke-linecap:butt;stroke-linejoin:miter;stroke-opacity:1" />
  <path
     id="path3073"
     d="M 1440,1147.5 V 2880 H 0 v -7.5 C 793.88205,2734.9312 1449.5514,2082.1133 1078.5,1371 c 60,-150 225.8007,64.6367 237.6695,-77.7412 4.447,-53.3473 78.6258,-71.8316 123.8305,-145.7588 z"
     style="fill:#fecea8;fill-opacity:1;stroke:#000000;stroke-width:0.75px;stroke-linecap:butt;stroke-linejoin:miter;stroke-opacity:1" />
  <path
     transform="scale(0.75)"
     id="path3119"
     d="m 1555.3369,1933.1128 c -38.1939,-36.7759 -71.4432,-64.916 -158.8206,-134.4157 -150.3029,-119.5503 -200.7766,-162.7936 -252.947,-216.7124 -85.4073,-88.2694 -135.7867,-174.7375 -153.43405,-263.3444 -6.07417,-30.4983 -6.05353,-104.7931 0.0382,-137.4385 7.37668,-39.5313 34.05665,-120.0349 42.61275,-128.5788 9.8761,-9.8619 82.23,-13.707 124.2043,-6.6004 167.5904,28.3741 403.1013,187.321 705.4241,476.0924 l 31.7749,30.3506 -13.0543,14.1002 c -22.3703,24.1625 -44.4105,61.1506 -58.1588,97.6027 -3.2,8.4845 -12.5681,38.9221 -20.8179,67.639 -17.6128,61.3086 -26.8359,84.2118 -44.7605,111.1507 -32.3561,48.6282 -84.5934,83.1836 -172.3949,114.0406 -2.2771,0.8003 -12.9669,-7.8066 -29.6662,-23.886 z"
     style="opacity:0.999;fill:#000000;fill-opacity:0;fill-rule:nonzero;stroke-width:2.3733" />
</svg>
