<?xml version="1.0" encoding="UTF-8"?>
<svg width="1440pt" height="2880pt" version="1.0" viewBox="0 0 1440 2880" xmlns="http://www.w3.org/2000/svg" xmlns:cc="http://creativecommons.org/ns#" xmlns:dc="http://purl.org/dc/elements/1.1/" xmlns:osb="http://www.openswatchbook.org/uri/2009/osb" xmlns:rdf="http://www.w3.org/1999/02/22-rdf-syntax-ns#">
 <metadata>Created by potrace 1.16, written by Peter Selinger 2001-2019
  <rdf:RDF>
   <cc:Work rdf:about="">
    <dc:format>image/svg+xml</dc:format>
    <dc:type rdf:resource="http://purl.org/dc/dcmitype/StillImage"/>
    <dc:title/>
   </cc:Work>
  </rdf:RDF>
 </metadata>
 <g>
  <path d="m420 810-420-810v2880c2118 42.21-180-360 1440-1560v-960l-300-30-420-330h-720z" fill="#2a363b"/>
  <g stroke="#000000">
   <path d="m540 1860-540 1020c1390.8-138.84 1356.4-641.04 1440-1722.5l-11.25 8.75c-1142.8-1111-703.6 512.63-888.75 693.75z" fill="#000000" stroke-width=".75px"/>
   <path d="m720 0h720v600c-501.28-64.974-437.98-384.35-720-600z" fill="#96b895" stroke-width=".75px"/>
   <path d="m0 0c397.21 164.04 967.5 502.5 778.34 778.01-208.34 346.99 312.76 528.82 466.13 758.98 333.51 567.14 74.221 1299.8-610.98 1343.2-165-15-339.99 2.9799-442.55 1.8893l-190.94-2.0704z" fill="#e84a5f" stroke-width=".75" style="mix-blend-mode:normal"/>
   <path d="m0 2880c997.44-269.32 1023.3-1430.7 0-2220z" fill="#ff847c" opacity=".999" stroke-width=".75px"/>
   <path d="m1440 1147.5v1732.5h-1440v-7.5c793.88-137.57 1449.6-790.39 1078.5-1501.5 60-150 225.8 64.637 237.67-77.741 4.447-53.347 78.626-71.832 123.83-145.76z" fill="#fecea8" stroke-width=".75px"/>
  </g>
 </g>
 <path transform="scale(.75)" d="m1555.3 1933.1c-38.194-36.776-71.443-64.916-158.82-134.42-150.3-119.55-200.78-162.79-252.95-216.71-85.407-88.269-135.79-174.74-153.43-263.34-6.0742-30.498-6.0535-104.79 0.0382-137.44 7.3767-39.531 34.057-120.03 42.613-128.58 9.8761-9.8619 82.23-13.707 124.2-6.6004 167.59 28.374 403.1 187.32 705.42 476.09l31.775 30.351-13.054 14.1c-22.37 24.162-44.41 61.151-58.159 97.603-3.2 8.4845-12.568 38.922-20.818 67.639-17.613 61.309-26.836 84.212-44.76 111.15-32.356 48.628-84.593 83.184-172.39 114.04-2.2771 0.8003-12.967-7.8066-29.666-23.886z" fill-opacity="0" opacity=".999" stroke-width="2.3733"/>
</svg>
