<?xml version="1.0" encoding="UTF-8" standalone="no"?>
<svg
   xmlns:dc="http://purl.org/dc/elements/1.1/"
   xmlns:cc="http://creativecommons.org/ns#"
   xmlns:rdf="http://www.w3.org/1999/02/22-rdf-syntax-ns#"
   xmlns:svg="http://www.w3.org/2000/svg"
   xmlns="http://www.w3.org/2000/svg"
   id="svg22"
   viewBox="0 0 1440 2880"
   version="1.0"
   height="2880pt"
   width="1440pt">
  <defs
     id="defs26" />
  <metadata
     id="metadata2">Created by potrace 1.16, written by Peter Selinger 2001-2019
  <rdf:RDF>
  <cc:Work
     rdf:about="">
    <dc:format>image/svg+xml</dc:format>
    <dc:type
       rdf:resource="http://purl.org/dc/dcmitype/StillImage" />
    <dc:title></dc:title>
  </cc:Work>
</rdf:RDF>
</metadata>
  <g
     id="g18">
    <path
       style="stroke:none"
       id="path4"
       fill="#2a363b"
       d="m420 810-420-810v2880c2118 42.21-180-360 1440-1560v-960l-300-30-420-330h-720z" />
    <g
       id="g16"
       stroke="#000000">
      <path
         style="stroke:#000000;stroke-opacity:1"
         id="path6"
         stroke-width="0.75px"
         fill="#000000"
         d="m 540,1860 900,-119.5748 V 1137.8806 C 297.2,26.880587 725.15,1678.88 540,1860 Z" />
      <path
         style="stroke:#000000;stroke-opacity:1"
         id="path8"
         stroke-width=".75px"
         fill="#96b895"
         d="m720 0h720v600c-501.28-64.974-437.98-384.35-720-600z" />
      <path
         id="path10"
         style="mix-blend-mode:normal;stroke:#000000;stroke-opacity:1"
         stroke-width=".75"
         fill="#e84a5f"
         d="m0 0c397.21 164.04 967.5 502.5 778.34 778.01-208.34 346.99 312.76 528.82 466.13 758.98 333.51 567.14 74.221 1299.8-610.98 1343.2-165-15-339.99 2.9799-442.55 1.8893l-190.94-2.0704z" />
      <path
         style="stroke:#000000;stroke-opacity:1"
         id="path12"
         stroke-width=".75px"
         opacity=".999"
         fill="#ff847c"
         d="m0 2880c997.44-269.32 1023.3-1430.7 0-2220z" />
      <path
         style="stroke:#000000;stroke-opacity:1"
         id="path14"
         stroke-width="0.75px"
         fill="#fecea8"
         d="M 1440,1147.5 V 2880 H 0 v -7.5 c 793.88,-137.57 1450.7794,-789.6246 1079.6794,-1500.7346 72.8422,-137.0892 196.4793,43.2857 242.2819,-92.0454 C 1358.1398,1172.8246 1440,1147.499 1440,1147.499 Z" />
    </g>
  </g>
</svg>
