<?xml version="1.0" encoding="UTF-8" standalone="no"?>
<svg
   xmlns:dc="http://purl.org/dc/elements/1.1/"
   xmlns:cc="http://creativecommons.org/ns#"
   xmlns:rdf="http://www.w3.org/1999/02/22-rdf-syntax-ns#"
   xmlns:svg="http://www.w3.org/2000/svg"
   xmlns="http://www.w3.org/2000/svg"
   xmlns:sodipodi="http://sodipodi.sourceforge.net/DTD/sodipodi-0.dtd"
   xmlns:inkscape="http://www.inkscape.org/namespaces/inkscape"
   viewBox="0 0 161.033 157.05701"
   height="157.05701"
   width="161.033"
   xml:space="preserve"
   id="svg2"
   version="1.1"
   sodipodi:docname="git.svg"
   inkscape:version="0.92.3 (2405546, 2018-03-11)"><sodipodi:namedview
     pagecolor="#ffffff"
     bordercolor="#666666"
     borderopacity="1"
     objecttolerance="10"
     gridtolerance="10"
     guidetolerance="10"
     inkscape:pageopacity="0"
     inkscape:pageshadow="2"
     inkscape:window-width="1529"
     inkscape:window-height="833"
     id="namedview16"
     showgrid="false"
     inkscape:zoom="1.5026391"
     inkscape:cx="-22.302598"
     inkscape:cy="78.528503"
     inkscape:window-x="206"
     inkscape:window-y="149"
     inkscape:window-maximized="0"
     inkscape:current-layer="g1045" /><metadata
     id="metadata8"><rdf:RDF><cc:Work
         rdf:about=""><dc:format>image/svg+xml</dc:format><dc:type
           rdf:resource="http://purl.org/dc/dcmitype/StillImage" /><dc:title /></cc:Work></rdf:RDF></metadata><defs
     id="defs6" /><g
     transform="matrix(0.13333333,0,0,-0.13333333,-275.02706,318.22091)"
     id="g1045"><path
       style="fill:#17c25b;fill-opacity:1;fill-rule:evenodd;stroke:none;stroke-width:0.13333333"
       d="M 80.517578 0 C 36.054913 0 0 36.046293 0 80.515625 C 0 116.09029 23.070501 146.27104 55.0625 156.91797 C 59.0865 157.66317 60.564453 155.17159 60.564453 153.04492 C 60.564453 151.12492 60.489745 144.78269 60.455078 138.05469 C 38.055079 142.92535 33.328125 128.55469 33.328125 128.55469 C 29.665458 119.24802 24.388672 116.77344 24.388672 116.77344 C 17.083339 111.7761 24.939453 111.87891 24.939453 111.87891 C 33.024786 112.44557 37.28125 120.17578 37.28125 120.17578 C 44.462583 132.48511 56.118224 128.92647 60.712891 126.86914 C 61.435557 121.66647 63.521552 118.11285 65.824219 116.10352 C 47.940219 114.06752 29.140625 107.16255 29.140625 76.310547 C 29.140625 67.51988 32.28488 60.337885 37.435547 54.699219 C 36.599547 52.669885 33.844797 44.481291 38.216797 33.390625 C 38.216797 33.390625 44.976615 31.227198 60.363281 41.644531 C 66.785948 39.860531 73.674912 38.966214 80.517578 38.935547 C 87.360245 38.966214 94.25282 39.860531 100.6875 41.644531 C 116.0555 31.227198 122.80859 33.390625 122.80859 33.390625 C 127.19125 44.481291 124.43366 52.669885 123.59766 54.699219 C 128.76034 60.337885 131.88477 67.51988 131.88477 76.310547 C 131.88477 107.23588 113.04849 114.04573 95.119141 116.03906 C 98.007141 118.53773 100.58008 123.43722 100.58008 130.94922 C 100.58008 141.72122 100.48633 150.39159 100.48633 153.04492 C 100.48633 155.18759 101.93626 157.69874 106.01758 156.9082 C 137.99224 146.24954 161.0332 116.07829 161.0332 80.515625 C 161.03316 36.046293 124.98426 0 80.517578 0 z M 29.341797 114.25391 C 28.910484 114.18978 28.522578 114.33163 28.392578 114.64062 C 28.203245 115.04196 28.531234 115.58694 29.115234 115.84961 C 29.688568 116.12428 30.31876 116.00485 30.496094 115.60352 C 30.69876 115.20218 30.36463 114.65267 29.779297 114.38867 C 29.63363 114.32034 29.485568 114.27528 29.341797 114.25391 z M 32.228516 117.02539 C 32.096328 117.05106 31.975953 117.10631 31.876953 117.19531 C 31.48762 117.55665 31.586615 118.30781 32.113281 118.86914 C 32.622615 119.43181 33.373813 119.59819 33.757812 119.24219 C 34.159146 118.88219 34.055964 118.13636 33.529297 117.56836 C 33.133297 117.14736 32.625078 116.94839 32.228516 117.02539 z M 35.564453 121.125 C 35.411745 121.13327 35.269531 121.17963 35.144531 121.26562 C 34.640531 121.60962 34.639479 122.46759 35.132812 123.18359 C 35.631479 123.89955 36.438307 124.22157 36.931641 123.87891 C 37.435641 123.52824 37.435359 122.66807 36.943359 121.94141 C 36.564359 121.40838 36.022578 121.10018 35.564453 121.125 z M 39.427734 125.70312 C 39.15957 125.71573 38.921406 125.81114 38.753906 125.99414 C 38.31124 126.48081 38.508891 127.40145 39.212891 128.05078 C 39.900891 128.71478 40.839917 128.84604 41.28125 128.35938 C 41.751917 127.87804 41.53851 126.94878 40.839844 126.30078 C 40.40651 125.88911 39.874674 125.68211 39.427734 125.70312 z M 45.287109 129.20117 C 44.634922 129.19398 44.089266 129.48103 43.947266 129.95703 C 43.763266 130.59436 44.358865 131.33338 45.269531 131.60938 C 46.181531 131.87737 47.086583 131.5916 47.28125 130.96094 C 47.470583 130.3196 46.874177 129.58521 45.964844 129.31055 C 45.735177 129.23888 45.504505 129.20357 45.287109 129.20117 z M 58.763672 129.49219 C 58.548026 129.46865 58.316125 129.47429 58.078125 129.51562 C 57.144792 129.68762 56.466031 130.35358 56.582031 131.01758 C 56.700698 131.66024 57.567286 132.06067 58.501953 131.88867 C 59.45262 131.71267 60.11662 131.04644 60.001953 130.39844 C 59.910953 129.90444 59.410609 129.56281 58.763672 129.49219 z M 52.128906 130.26758 C 51.16624 130.28358 50.410156 130.82933 50.410156 131.5 C 50.420823 132.15333 51.199443 132.69068 52.162109 132.66797 C 53.119443 132.6573 53.893774 132.10736 53.871094 131.44336 C 53.871094 130.78336 53.08624 130.24888 52.128906 130.26758 z "
       transform="matrix(7.5000002,0,0,-7.5000002,2062.703,2386.6569)"
       id="path108" /></g></svg>