<?xml version="1.0" encoding="UTF-8" standalone="no"?>
<!-- Created with Inkscape (http://www.inkscape.org/) -->

<svg
   width="348"
   height="80"
   viewBox="0 0 92.075 21.166667"
   version="1.1"
   id="svg8"
   inkscape:version="1.1.1 (3bf5ae0d25, 2021-09-20)"
   sodipodi:docname="newlogo.svg"
   inkscape:export-filename="/media/leo/posidon/newlogo.png"
   inkscape:export-xdpi="96"
   inkscape:export-ydpi="96"
   xmlns:inkscape="http://www.inkscape.org/namespaces/inkscape"
   xmlns:sodipodi="http://sodipodi.sourceforge.net/DTD/sodipodi-0.dtd"
   xmlns:xlink="http://www.w3.org/1999/xlink"
   xmlns="http://www.w3.org/2000/svg"
   xmlns:svg="http://www.w3.org/2000/svg"
   xmlns:rdf="http://www.w3.org/1999/02/22-rdf-syntax-ns#"
   xmlns:cc="http://creativecommons.org/ns#"
   xmlns:dc="http://purl.org/dc/elements/1.1/">
  <defs
     id="defs2">
    <linearGradient
       id="linearGradient6250"
       inkscape:collect="always">
      <stop
         id="stop6246"
         offset="0"
         style="stop-color:#ffe4c1;stop-opacity:1" />
      <stop
         id="stop6248"
         offset="1"
         style="stop-color:#ff4d4d;stop-opacity:0" />
    </linearGradient>
    <radialGradient
       inkscape:collect="always"
       xlink:href="#linearGradient6250"
       id="radialGradient905"
       cx="-61.383335"
       cy="239.84999"
       fx="-61.383335"
       fy="239.84999"
       r="12.699997"
       gradientUnits="userSpaceOnUse"
       gradientTransform="matrix(0,1.8333331,-1.8333331,0,378.34161,352.38608)" />
    <clipPath
       clipPathUnits="userSpaceOnUse"
       id="clipPath1316">
      <path
         id="path1318"
         d="m -46.356344,246.06304 v 6.93291 l -2.326989,1.34307 v 2.4443 l 3.912938,-2.2593 c 0.01201,-0.007 0.02138,-0.0165 0.03307,-0.0238 0.0295,-0.0185 0.05683,-0.0393 0.08423,-0.0605 0.0281,-0.0218 0.05635,-0.0431 0.08165,-0.0672 0.02241,-0.0212 0.04213,-0.0446 0.06253,-0.0677 0.0258,-0.0291 0.05118,-0.058 0.07338,-0.0894 0.01659,-0.0234 0.03026,-0.0486 0.04496,-0.0734 0.01939,-0.0329 0.03856,-0.0656 0.05426,-0.10026 0.01259,-0.0278 0.02236,-0.0567 0.03255,-0.0858 0.01259,-0.036 0.02498,-0.0714 0.03359,-0.10852 0.007,-0.0296 0.01058,-0.06 0.01497,-0.0904 0.005,-0.0382 0.01005,-0.076 0.01138,-0.11472 5.29e-4,-0.0126 0.0041,-0.0245 0.0041,-0.0372 v -6.48384 z m -8.88628,5.3e-4 -2.116667,1.05833 v 6.48333 c 0,0.0127 0.0031,0.0246 0.0041,0.0372 0.0011,0.0387 0.006,0.0766 0.01138,0.11473 0.004,0.0306 0.008,0.0611 0.01497,0.0909 0.008,0.0362 0.02077,0.0708 0.03307,0.10593 0.01061,0.0303 0.0204,0.0605 0.03359,0.0894 0.01479,0.0326 0.03296,0.0634 0.05116,0.0946 0.0158,0.027 0.03099,0.0541 0.04909,0.0796 0.0208,0.0293 0.04431,0.0564 0.06821,0.0837 0.02209,0.0252 0.04381,0.0504 0.06821,0.0734 0.02331,0.0219 0.04892,0.0415 0.07441,0.0615 0.0298,0.0233 0.05969,0.0462 0.09199,0.0661 0.01069,0.007 0.0195,0.0153 0.03049,0.0217 l 3.911917,2.25877 v -2.44378 l -2.325957,-1.34307 z"
         style="opacity:1;fill:#000000;fill-opacity:1;stroke:none;stroke-width:0.582336;stroke-linecap:round;stroke-linejoin:round;stroke-miterlimit:0;stroke-dasharray:none;stroke-opacity:1;paint-order:normal"
         inkscape:connector-curvature="0" />
    </clipPath>
  </defs>
  <sodipodi:namedview
     id="base"
     pagecolor="#000000"
     bordercolor="#666666"
     borderopacity="1.0"
     inkscape:pageopacity="0"
     inkscape:pageshadow="2"
     inkscape:zoom="2.5890244"
     inkscape:cx="67.979275"
     inkscape:cy="127.84739"
     inkscape:document-units="mm"
     inkscape:current-layer="layer1"
     showgrid="true"
     units="px"
     inkscape:window-width="1503"
     inkscape:window-height="933"
     inkscape:window-x="0"
     inkscape:window-y="0"
     inkscape:window-maximized="1"
     inkscape:object-paths="true"
     inkscape:snap-intersection-paths="true"
     inkscape:snap-smooth-nodes="true"
     inkscape:snap-midpoints="true"
     inkscape:snap-grids="true"
     inkscape:snap-page="false"
     inkscape:snap-bbox="true"
     inkscape:bbox-paths="true"
     inkscape:snap-nodes="true"
     inkscape:bbox-nodes="true"
     inkscape:snap-bbox-edge-midpoints="true"
     inkscape:pagecheckerboard="0"
     inkscape:snap-text-baseline="false">
    <inkscape:grid
       type="xygrid"
       id="grid815"
       empspacing="4" />
  </sodipodi:namedview>
  <metadata
     id="metadata5">
    <rdf:RDF>
      <cc:Work
         rdf:about="">
        <dc:format>image/svg+xml</dc:format>
        <dc:type
           rdf:resource="http://purl.org/dc/dcmitype/StillImage" />
      </cc:Work>
    </rdf:RDF>
  </metadata>
  <g
     inkscape:label="Layer 1"
     inkscape:groupmode="layer"
     id="layer1"
     transform="translate(0,-203.86665)">
    <path
       id="path1051"
       style="fill:#ffffff;fill-opacity:1;fill-rule:nonzero;stroke:none;stroke-width:0.600001;stroke-linecap:round;stroke-linejoin:round;stroke-miterlimit:4;stroke-dasharray:none;stroke-opacity:1;paint-order:stroke markers fill"
       d="m 66.675,203.86665 v 6.34431 c -0.883304,-0.66149 -1.981658,-1.05265 -3.175,-1.05265 -2.931581,0 -5.291668,2.36008 -5.291668,5.29167 0,2.93158 2.360086,5.29167 5.291668,5.29167 2.931585,0 5.291666,-2.36009 5.291666,-5.29167 v -10.58333 z m -43.391667,5.29166 c -2.931584,0 -5.291667,2.36008 -5.291667,5.29167 0,1.7e-4 0,3.4e-4 0,5.2e-4 v 10.58333 h 2.116667 V 218.689 c 0.883306,0.6615 1.981655,1.05265 3.175,1.05265 2.931583,0 5.291666,-2.36009 5.291666,-5.29167 0,-2.93159 -2.360083,-5.29167 -5.291666,-5.29167 z m 12.699999,0 c -2.931579,0 -5.291666,2.36008 -5.291666,5.29167 0,2.93158 2.360087,5.29167 5.291666,5.29167 2.931587,0 5.291667,-2.36009 5.291667,-5.29167 0,-2.93159 -2.360081,-5.29167 -5.291667,-5.29167 z m 17.991667,0 v 10.58334 h 2.116668 v -10.58334 z m 22.225,0 c -2.931581,0 -5.291667,2.36008 -5.291667,5.29167 0,2.93158 2.360086,5.29167 5.291667,5.29167 2.931586,0 5.291666,-2.36009 5.291666,-5.29167 0,-2.93159 -2.360079,-5.29167 -5.291666,-5.29167 z m -29.633333,5.2e-4 c -2.116667,0 -3.174999,1.09364 -3.174999,3.175 0,2.11668 1.058332,3.175 3.174999,3.175 h 2.116666 c 0,0 1.058334,-5e-4 1.058334,1.05782 0,0 -2.2e-5,1.05241 -1.058334,1.05833 l -4.233333,5.2e-4 -1.058333,2.11615 h 5.291666 c 2.11667,4e-5 3.175006,-1.05832 3.175,-3.175 0,-2.11664 -1.05833,-3.17496 -3.175,-3.175 h -2.116666 c 0,0 -1.058334,5e-4 -1.058334,-1.05782 0,0 -2e-6,-1.05833 1.058334,-1.05833 H 50.8 l 1.058333,-2.11667 z m 39.158331,0 v 0.0217 h -2.09289 v 10.58334 h 2.11667 v -8.48837 c 1.07904,9e-5 4.20904,0.0147 4.20956,2.11666 v 6.34949 h 2.116659 v -5.29115 -1.05834 -5.1e-4 c -3.39e-4,-4.23284 -4.233419,-4.23282 -6.349999,-4.23282 z m -62.441663,2.11615 c 1.75895,0 3.175,1.41605 3.175,3.175 0,1.75895 -1.41605,3.175 -3.175,3.175 -1.758778,0 -3.17472,-1.41577 -3.175,-3.17448 0,-1.8e-4 0,-3.5e-4 0,-5.2e-4 0,-1.75895 1.41605,-3.175 3.175,-3.175 z m 12.699999,0 c 1.758953,0 3.175,1.41605 3.175,3.175 0,1.75895 -1.416047,3.175 -3.175,3.175 -1.75895,0 -3.175,-1.41605 -3.175,-3.175 0,-1.75895 1.41605,-3.175 3.175,-3.175 z m 27.516667,0 c 1.758951,0 3.175,1.41605 3.175,3.175 0,1.75895 -1.416049,3.175 -3.175,3.175 -1.75895,0 -3.175,-1.41605 -3.175,-3.175 0,-1.75895 1.41605,-3.175 3.175,-3.175 z m 12.7,0 c 1.758951,0 3.175,1.41605 3.175,3.175 0,1.75895 -1.416049,3.175 -3.175,3.175 -1.75895,0 -3.175,-1.41605 -3.175,-3.175 0,-1.75895 1.41605,-3.175 3.175,-3.175 z" />
    <path
       inkscape:connector-curvature="0"
       id="path1075"
       d="m 6.3500485,207.04211 v 13.3104 l 0.52865,0.30541 c 0.0109,0.006 0.0226,0.009 0.0336,0.015 0.0169,0.009 0.0333,0.0188 0.0506,0.0269 0.027,0.0125 0.0545,0.0233 0.0827,0.0336 0.0201,0.007 0.0401,0.014 0.0605,0.0202 0.0178,0.005 0.0352,0.0106 0.0532,0.015 0.0267,0.006 0.0537,0.0111 0.0811,0.0155 0.0221,0.004 0.044,0.007 0.0661,0.009 0.0219,0.002 0.0436,0.003 0.0656,0.004 0.0125,4.3e-4 0.0241,0.004 0.0367,0.004 0.0129,0 0.0249,-0.003 0.0377,-0.004 0.0215,-7.8e-4 0.0427,-0.002 0.0641,-0.004 0.0223,-0.002 0.0444,-0.006 0.0667,-0.009 0.0274,-0.004 0.0545,-0.009 0.0811,-0.0155 0.0179,-0.004 0.0351,-0.01 0.0527,-0.015 0.0205,-0.006 0.0407,-0.0127 0.061,-0.0202 0.0283,-0.0103 0.0561,-0.021 0.0832,-0.0336 0.0166,-0.008 0.0323,-0.0172 0.0486,-0.0258 0.0115,-0.006 0.0237,-0.009 0.0351,-0.016 l 0.52762,-0.30489 v -13.31092 z"
       style="fill:#ffffff;fill-opacity:1;stroke:none;stroke-width:0.582336;stroke-linecap:round;stroke-linejoin:round;stroke-miterlimit:0;stroke-dasharray:none;stroke-opacity:1;paint-order:normal" />
    <path
       id="path1077"
       style="fill:#0ee463;fill-opacity:1;stroke:none;stroke-width:0.582335;stroke-linecap:round;stroke-linejoin:round;stroke-miterlimit:0;stroke-dasharray:none;stroke-opacity:1;paint-order:normal"
       d="m 11.851982,209.02208 v 6.93291 l -2.3269875,1.34307 v 2.4443 l 3.9129375,-2.2593 c 0.012,-0.007 0.02137,-0.0165 0.03307,-0.0238 0.0295,-0.0185 0.05683,-0.0393 0.08423,-0.0605 0.0281,-0.0218 0.05635,-0.0431 0.08165,-0.0672 0.0224,-0.0212 0.04213,-0.0446 0.06253,-0.0677 0.0258,-0.0291 0.05118,-0.058 0.07338,-0.0894 0.0166,-0.0234 0.03026,-0.0486 0.04496,-0.0734 0.0194,-0.0329 0.03856,-0.0656 0.05426,-0.10025 0.0126,-0.0278 0.02235,-0.0572 0.03255,-0.0863 0.0126,-0.036 0.02499,-0.0714 0.03359,-0.10852 0.007,-0.0296 0.01059,-0.0595 0.01499,-0.0899 0.005,-0.0382 0.01007,-0.076 0.01137,-0.11472 4.39e-4,-0.0126 0.0041,-0.0245 0.0041,-0.0372 v -6.48383 z m -8.8862776,5.2e-4 -2.11666601,1.05833 v 6.48332 c 0,0.0127 0.0031,0.0246 0.0041,0.0372 0.001,0.0387 0.006,0.0766 0.01137,0.11472 0.004,0.0306 0.008,0.0611 0.01499,0.091 0.008,0.0362 0.02077,0.0708 0.03307,0.10594 0.0106,0.0303 0.02039,0.0605 0.03359,0.0894 0.0148,0.0326 0.03296,0.0634 0.05116,0.0946 0.0158,0.027 0.03099,0.0541 0.04909,0.0796 0.0208,0.0293 0.04431,0.0564 0.06821,0.0837 0.0221,0.0252 0.04381,0.0504 0.06821,0.0734 0.0233,0.0219 0.04891,0.0415 0.07441,0.0615 0.0298,0.0233 0.05968,0.0462 0.09198,0.0661 0.0107,0.007 0.01949,0.0153 0.03049,0.0217 l 3.9119061,2.25878 v -2.44378 l -2.3259571,-1.34307 z" />
  </g>
</svg>
