<?xml version="1.0" encoding="UTF-8" standalone="no"?>
<!-- Generator: Adobe Illustrator 20.0.0, SVG Export Plug-In . SVG Version: 6.00 Build 0)  -->

<svg
   xmlns:dc="http://purl.org/dc/elements/1.1/"
   xmlns:cc="http://creativecommons.org/ns#"
   xmlns:rdf="http://www.w3.org/1999/02/22-rdf-syntax-ns#"
   xmlns:svg="http://www.w3.org/2000/svg"
   xmlns="http://www.w3.org/2000/svg"
   xmlns:sodipodi="http://sodipodi.sourceforge.net/DTD/sodipodi-0.dtd"
   xmlns:inkscape="http://www.inkscape.org/namespaces/inkscape"
   version="1.1"
   x="0px"
   y="0px"
   viewBox="0 0 400 400"
   style="enable-background:new 0 0 400 400;"
   xml:space="preserve"
   id="svg12"
   sodipodi:docname="twitter.svg"
   inkscape:version="0.92.3 (2405546, 2018-03-11)"><metadata
   id="metadata18"><rdf:RDF><cc:Work
       rdf:about=""><dc:format>image/svg+xml</dc:format><dc:type
         rdf:resource="http://purl.org/dc/dcmitype/StillImage" /></cc:Work></rdf:RDF></metadata><defs
   id="defs16">
	

		
	</defs><sodipodi:namedview
   pagecolor="#ffffff"
   bordercolor="#666666"
   borderopacity="1"
   objecttolerance="10"
   gridtolerance="10"
   guidetolerance="10"
   inkscape:pageopacity="0"
   inkscape:pageshadow="2"
   inkscape:window-width="1386"
   inkscape:window-height="867"
   id="namedview14"
   showgrid="false"
   inkscape:snap-page="true"
   inkscape:zoom="1.18"
   inkscape:cx="212.70936"
   inkscape:cy="222.92623"
   inkscape:window-x="235"
   inkscape:window-y="73"
   inkscape:window-maximized="0"
   inkscape:current-layer="svg12" />
<style
   type="text/css"
   id="style2">
	.st0{opacity:0.15;fill:#292F33;}
	.st1{fill:#FFFFFF;}
</style>

<path
   class="st1"
   d="m 125.71885,362.58439 c 150.90264,0 233.47503,-125.13877 233.47503,-233.47503 0,-3.52052 0,-7.04105 -0.16002,-10.56158 C 375.03626,107.02605 388.95835,92.463865 400,75.981392 385.27779,82.542377 369.43542,86.863025 352.79292,88.943337 369.75546,78.861824 382.71741,62.699399 388.95835,43.496518 373.11597,52.937935 355.51333,59.658943 336.79052,63.339495 321.74826,47.337094 300.46507,37.415606 276.94154,37.415606 c -45.2868,0 -82.09232,36.805522 -82.09232,82.092314 0,6.40096 0.80012,12.6419 2.08031,18.72281 C 128.75931,134.87023 68.27023,102.06531 27.784155,52.457863 20.743099,64.619688 16.742499,78.7018 16.742499,93.744057 c 0,28.484273 14.562184,53.608043 36.485474,68.330253 -13.442017,-0.48007 -26.083914,-4.16062 -37.12557,-10.24154 0,0.32005 0,0.6401 0,1.12017 0,39.68596 28.324249,72.97095 65.769868,80.49208 -6.881033,1.92029 -14.082113,2.88043 -21.603242,2.88043 -5.280792,0 -10.40156,-0.48007 -15.362305,-1.44022 10.401561,32.6449 40.806123,56.32846 76.651506,56.96855 -28.164231,22.08332 -63.529537,35.20528 -101.935299,35.20528 -6.560985,0 -13.1219691,-0.32004 -19.52292949,-1.12016 C 36.265428,348.98235 79.47191,362.58439 125.71885,362.58439"
   id="path7"
   inkscape:connector-curvature="0"
   style="fill:#17c25b;fill-opacity:1;stroke-width:1.60024011" />
</svg>