<?xml version="1.0" encoding="UTF-8" standalone="no"?>
<svg
   xmlns:dc="http://purl.org/dc/elements/1.1/"
   xmlns:cc="http://creativecommons.org/ns#"
   xmlns:rdf="http://www.w3.org/1999/02/22-rdf-syntax-ns#"
   xmlns:svg="http://www.w3.org/2000/svg"
   xmlns="http://www.w3.org/2000/svg"
   xmlns:xlink="http://www.w3.org/1999/xlink"
   id="svg8"
   version="1.1"
   viewBox="0 0 415.28999 846.66666"
   height="3200"
   width="1569.6">
  <defs
     id="defs2">
    <linearGradient
       id="linearGradient1857">
      <stop
         id="stop1853"
         offset="0"
         style="stop-color:#ffa94f;stop-opacity:1" />
      <stop
         id="stop1855"
         offset="1"
         style="stop-color:#ff9215;stop-opacity:0.77872342" />
    </linearGradient>
    <path
       id="SVGID_4_"
       d="m 64,42.28 v 11.21 c 0,3.02 -1.25,5.95 -3.54,7.91 -0.12,0.1 -0.24,0.2 -0.36,0.29 -1.2,0.94 -2.61,1.61 -4.15,1.92 v -4.49 c 2.41,-0.85 4.15,-3.25 4.15,-6.07 V 40.26 Z M 47.9,53.04 V 40.26 L 44,42.28 v 11.21 c 0,3.02 1.25,5.95 3.54,7.91 0.12,0.1 0.24,0.2 0.36,0.29 1.2,0.94 2.61,1.61 4.15,1.92 V 59.12 C 49.64,58.25 47.9,55.86 47.9,53.04 Z" />
    <linearGradient
       y2="-1489.8567"
       x2="1790.757"
       y1="-1489.8567"
       x1="1711.674"
       gradientTransform="rotate(-165.36937,1792.7347,-1400.2068)"
       gradientUnits="userSpaceOnUse"
       id="linearGradient1863"
       xlink:href="#linearGradient1857" />
  </defs>
  <metadata
     id="metadata5">
    <rdf:RDF>
      <cc:Work
         rdf:about="">
        <dc:format>image/svg+xml</dc:format>
        <dc:type
           rdf:resource="http://purl.org/dc/dcmitype/StillImage" />
        <dc:title></dc:title>
      </cc:Work>
    </rdf:RDF>
  </metadata>
  <g
     transform="translate(0,549.66662)"
     id="layer1">
    <rect
       style="opacity:1;fill:#051b26;fill-opacity:1;stroke:none;stroke-width:0.72779459;stroke-linecap:round;stroke-linejoin:round;stroke-miterlimit:4;stroke-dasharray:none;stroke-opacity:1;paint-order:markers stroke fill"
       id="rect1373"
       width="415.28909"
       height="846.66632"
       x="0.00091105583"
       y="-549.66632"
       ry="0.81725854" />
    <path
       id="circle4308"
       d="m 415.29001,-119.28975 a 331.39827,331.39827 0 0 0 -283.10142,327.55034 331.39827,331.39827 0 0 0 12.10667,88.73871 h 270.17702 c 0.45277,0 0.81773,-0.36316 0.81773,-0.81593 z"
       style="opacity:1;fill:#1a4c64;fill-opacity:1;stroke:none;stroke-width:0.81750131;stroke-linecap:round;stroke-linejoin:round;stroke-miterlimit:4;stroke-dasharray:none;stroke-opacity:1;paint-order:markers stroke fill" />
    <path
       id="path1377"
       d="m 415.29001,-117.93362 a 331.39827,331.39827 0 0 0 -282.04877,327.42445 331.39827,331.39827 0 0 0 11.82174,87.50847 h 269.4093 c 0.45277,0 0.81773,-0.36316 0.81773,-0.81593 z"
       style="opacity:1;fill:#0b3a53;fill-opacity:1;stroke:none;stroke-width:0.81750131;stroke-linecap:round;stroke-linejoin:round;stroke-miterlimit:4;stroke-dasharray:none;stroke-opacity:1;paint-order:markers stroke fill" />
    <path
       id="circle4310"
       d="m 0.81772433,-549.66666 c -0.45276979,0 -0.8177325490561,0.36496 -0.8177325490561,0.81764 V 59.669595 A 473.9665,473.9665 0 0 0 330.51218,-391.48699 473.9665,473.9665 0 0 0 302.80797,-549.66666 Z"
       style="opacity:1;fill:#062a3d;fill-opacity:1;stroke:none;stroke-width:1.16919208;stroke-linecap:round;stroke-linejoin:round;stroke-miterlimit:4;stroke-dasharray:none;stroke-opacity:1;paint-order:markers stroke fill" />
    <path
       id="circle1379"
       d="m 0.81772433,-549.66666 c -0.45276979,0 -0.8177325490561,0.36496 -0.8177325490561,0.81764 V 57.129443 A 473.9665,473.9665 0 0 0 329.18759,-393.58678 473.9665,473.9665 0 0 0 302.18082,-549.66666 Z"
       style="opacity:1;fill:#0b3a53;fill-opacity:1;stroke:none;stroke-width:1.16919208;stroke-linecap:round;stroke-linejoin:round;stroke-miterlimit:4;stroke-dasharray:none;stroke-opacity:1;paint-order:markers stroke fill" />
  </g>
  <style
     type="text/css"
     id="style2">
	.st0{clip-path:url(#SVGID_1_);}
	.st1{fill:#304FFE;}
	.st2{opacity:0.2;}
	.st3{opacity:0.3;}
	.st4{opacity:0.3;fill:#FFFFFF;}
	.st5{fill:url(#SVGID_2_);}
	.st6{fill:#FAFAFA;}
	.st7{fill:#FFFFFF;}
</style>
</svg>
