<?xml version="1.0" encoding="UTF-8" standalone="no"?>
<svg
   xmlns:dc="http://purl.org/dc/elements/1.1/"
   xmlns:cc="http://creativecommons.org/ns#"
   xmlns:rdf="http://www.w3.org/1999/02/22-rdf-syntax-ns#"
   xmlns:svg="http://www.w3.org/2000/svg"
   xmlns="http://www.w3.org/2000/svg"
   xmlns:xlink="http://www.w3.org/1999/xlink"
   id="svg8"
   version="1.1"
   viewBox="0 0 422.88355 846.66666"
   height="3200"
   width="1598.3">
  <defs
     id="defs2">
    <linearGradient
       id="linearGradient1857">
      <stop
         id="stop1853"
         offset="0"
         style="stop-color:#ffa94f;stop-opacity:1" />
      <stop
         id="stop1855"
         offset="1"
         style="stop-color:#ff9215;stop-opacity:0.77872342" />
    </linearGradient>
    <linearGradient
       id="linearGradient865">
      <stop
         style="stop-color:#0d00aa;stop-opacity:1"
         offset="0"
         id="stop861" />
      <stop
         style="stop-color:#00aaff;stop-opacity:0"
         offset="1"
         id="stop863" />
    </linearGradient>
    <path
       id="SVGID_4_"
       d="m 64,42.28 v 11.21 c 0,3.02 -1.25,5.95 -3.54,7.91 -0.12,0.1 -0.24,0.2 -0.36,0.29 -1.2,0.94 -2.61,1.61 -4.15,1.92 v -4.49 c 2.41,-0.85 4.15,-3.25 4.15,-6.07 V 40.26 Z M 47.9,53.04 V 40.26 L 44,42.28 v 11.21 c 0,3.02 1.25,5.95 3.54,7.91 0.12,0.1 0.24,0.2 0.36,0.29 1.2,0.94 2.61,1.61 4.15,1.92 V 59.12 C 49.64,58.25 47.9,55.86 47.9,53.04 Z" />
    <linearGradient
       y2="340.62054"
       x2="605.10974"
       y1="108.98057"
       x1="601.49237"
       gradientTransform="matrix(1.9172571,-1.1080555,1.1069289,1.9192084,-1182.3254,124.24645)"
       gradientUnits="userSpaceOnUse"
       id="linearGradient3029"
       xlink:href="#linearGradient865" />
    <linearGradient
       gradientTransform="matrix(1.917257,-1.1080556,1.1069289,1.9192085,-1093.0232,94.215619)"
       y2="340.62054"
       x2="605.10974"
       y1="108.98057"
       x1="601.49237"
       gradientUnits="userSpaceOnUse"
       id="linearGradient2714-7"
       xlink:href="#linearGradient865" />
    <linearGradient
       y2="-1489.8567"
       x2="1790.757"
       y1="-1489.8567"
       x1="1711.674"
       gradientTransform="rotate(-165.36937,1792.7347,-1400.2068)"
       gradientUnits="userSpaceOnUse"
       id="linearGradient1863"
       xlink:href="#linearGradient1857" />
  </defs>
  <metadata
     id="metadata5">
    <rdf:RDF>
      <cc:Work
         rdf:about="">
        <dc:format>image/svg+xml</dc:format>
        <dc:type
           rdf:resource="http://purl.org/dc/dcmitype/StillImage" />
        <dc:title></dc:title>
      </cc:Work>
    </rdf:RDF>
  </metadata>
  <g
     transform="translate(0,549.66664)"
     id="layer1">
    <rect
       style="opacity:1;fill:#000000;fill-opacity:1;stroke:none;stroke-width:7.16866112;stroke-linejoin:round;stroke-miterlimit:4;stroke-dasharray:none;stroke-opacity:1;paint-order:markers stroke fill"
       id="rect2623-5"
       width="422.90292"
       height="846.66669"
       x="-9.5656447e-05"
       y="-549.66669" />
    <path
       id="rect2625-3"
       d="m 422.90314,-328.87799 -115.09498,66.51921 c -10.63905,6.1488 -14.25941,19.67129 -8.11686,30.32117 6.14255,10.64988 19.65357,14.27392 30.29262,8.12512 l 92.91922,-53.70153 z m 0,75.23198 -148.2985,85.70781 c -10.63905,6.14881 -14.25941,19.67358 -8.11686,30.32345 6.1421,10.64943 19.65357,14.27393 30.29262,8.12512 l 126.12274,-72.89242 z m -157.78075,19.65841 c -3.91992,-0.0866 -7.91749,0.8735 -11.57485,2.98727 l -102.22807,59.07975 c -10.63905,6.14881 -14.25941,19.67346 -8.11686,30.32334 6.14256,10.64999 19.65129,14.27358 30.29035,8.12523 l 102.23022,-59.08192 c 10.63871,-6.1488 14.25941,-19.67129 8.11686,-30.32117 -4.03082,-6.98891 -11.23464,-10.95145 -18.71765,-11.1125 z m 157.78075,55.57356 -176.22275,101.844537 c -10.63905,6.148461 -14.25941,19.674028 -8.11686,30.323451 6.1421,10.649879 19.65391,14.273922 30.29262,8.125119 l 154.04699,-89.031307 z m -192.9234,39.96455 c -3.91992,-0.0866 -7.91533,0.87623 -11.57269,2.98954 l -77.62393,44.861797 c -10.63905,6.148462 -14.25895,19.674028 -8.11686,30.323451 6.14256,10.64988 19.6513,14.273467 30.29035,8.125119 l 77.62392,-44.864073 c 10.63906,-6.148344 14.25941,-19.671294 8.11686,-30.321174 -4.03093,-6.98879 -11.23464,-10.95362 -18.71765,-11.11466 z m 192.9234,39.167516 c -0.23921,0.126968 -0.47968,0.246299 -0.71605,0.38284 L 233.62446,10.077802 c -10.63905,6.148803 -14.25713,19.673458 -8.11458,30.323337 6.14256,10.649537 19.65164,14.273922 30.29035,8.125233 l 167.10291,-96.575499 z"
       style="opacity:1;fill:url(#linearGradient2714-7);fill-opacity:1;stroke:none;stroke-width:3.68794894;stroke-linejoin:round;stroke-miterlimit:4;stroke-dasharray:none;stroke-opacity:1;paint-order:markers stroke fill" />
    <path
       style="opacity:1;fill:url(#linearGradient3029);fill-opacity:1;stroke:none;stroke-width:3.68794894;stroke-linejoin:round;stroke-miterlimit:4;stroke-dasharray:none;stroke-opacity:1;paint-order:markers stroke fill"
       d="m 401.19426,-334.21092 c -3.91989,-0.0862 -7.91681,0.87403 -11.57376,2.98738 l -171.11478,98.89472 c -10.63865,6.1488 -14.25903,19.67151 -8.11648,30.32141 6.14255,10.64991 19.65323,14.27354 30.29231,8.12474 l 171.11435,-98.89299 c 10.63908,-6.14837 14.25902,-19.6728 8.11647,-30.32271 -4.03091,-6.98923 -11.23508,-10.95188 -18.71811,-11.11255 z m -42.27145,99.66148 c -3.91945,-0.0818 -7.91508,0.87403 -11.57203,2.98782 l -162.04899,93.6544 c -10.63908,6.14837 -14.25903,19.67324 -8.11691,30.32271 6.14255,10.649912 19.65323,14.273543 30.29231,8.125173 l 162.04726,-93.654403 c 10.63909,-6.1488 14.25903,-19.67324 8.11691,-30.32314 -4.03134,-6.9888 -11.23509,-10.95145 -18.71855,-11.11256 z m -183.10337,30.59194 c -3.91989,-0.0862 -7.91681,0.87403 -11.57419,2.98739 l -102.227782,59.08129 c -10.63865,6.1488 -14.259027,19.67324 -8.116478,30.32314 6.142549,10.64991 19.651508,14.27182 30.290588,8.12302 l 102.229502,-59.0813 c 10.63865,-6.14837 14.25902,-19.67107 8.11648,-30.32098 -4.03092,-6.98923 -11.23509,-10.95188 -18.71812,-11.11256 z m 169.97655,52.2269 c -3.91989,-0.0819 -7.91681,0.87575 -11.57419,2.98954 L 157.37802,-46.538041 c -10.63908,6.1488 -14.25903,19.673232 -8.11691,30.32314 6.14255,10.6499088 19.65323,14.2735398 30.29231,8.1251701 L 356.39591,-110.29491 c 10.63865,-6.1488 14.25903,-19.67151 8.11648,-30.32141 -4.03092,-6.9888 -11.23337,-10.95317 -18.7164,-11.11428 z m -205.1187,43.31299 c -3.91989,-0.0862 -7.91551,0.87575 -11.57247,2.98953 l -77.624443,44.861176 c -10.639081,6.14837 -14.259027,19.672802 -8.116909,30.32271 6.142549,10.649909 19.651508,14.27354 30.290588,8.12517 L 151.2785,-66.981919 c 10.63908,-6.148801 14.25903,-19.671509 8.11691,-30.321418 -4.03091,-6.988803 -11.23509,-10.953173 -18.71812,-11.114273 z m 203.78166,36.560675 c -3.91989,-0.08615 -7.91681,0.875754 -11.57419,2.989108 L 144.32349,40.108594 c -10.63908,6.1488 -14.25903,19.673232 -8.11648,30.322709 6.14212,10.649909 19.65151,14.273971 30.29016,8.12517 L 355.06059,-30.421671 c 10.63908,-6.148369 14.25903,-19.671509 8.11648,-30.320987 -4.03091,-6.989231 -11.23509,-10.9536 -18.71812,-11.114277 z"
       id="path3027" />
  </g>
  <style
     type="text/css"
     id="style2">
	.st0{clip-path:url(#SVGID_1_);}
	.st1{fill:#304FFE;}
	.st2{opacity:0.2;}
	.st3{opacity:0.3;}
	.st4{opacity:0.3;fill:#FFFFFF;}
	.st5{fill:url(#SVGID_2_);}
	.st6{fill:#FAFAFA;}
	.st7{fill:#FFFFFF;}
</style>
</svg>
