<?xml version="1.0" encoding="UTF-8" standalone="no"?>
<svg
   xmlns:dc="http://purl.org/dc/elements/1.1/"
   xmlns:cc="http://creativecommons.org/ns#"
   xmlns:rdf="http://www.w3.org/1999/02/22-rdf-syntax-ns#"
   xmlns:svg="http://www.w3.org/2000/svg"
   xmlns="http://www.w3.org/2000/svg"
   xmlns:xlink="http://www.w3.org/1999/xlink"
   id="svg8"
   version="1.1"
   viewBox="0 0 100.00006 175.90452"
   height="664.836"
   width="377.953">
  <defs
     id="defs2">
    <linearGradient
       id="linearGradient1857">
      <stop
         id="stop1853"
         offset="0"
         style="stop-color:#ffa94f;stop-opacity:1" />
      <stop
         id="stop1855"
         offset="1"
         style="stop-color:#ff9215;stop-opacity:0.77872342" />
    </linearGradient>
    <linearGradient
       id="linearGradient865">
      <stop
         style="stop-color:#0d00aa;stop-opacity:1"
         offset="0"
         id="stop861" />
      <stop
         style="stop-color:#00aaff;stop-opacity:0"
         offset="1"
         id="stop863" />
    </linearGradient>
    <linearGradient
       id="linearGradient859">
      <stop
         style="stop-color:#ff0088;stop-opacity:1"
         offset="0"
         id="stop855" />
      <stop
         style="stop-color:#03e9ff;stop-opacity:0.94117647"
         offset="1"
         id="stop857" />
    </linearGradient>
    <linearGradient
       y2="-297"
       x2="-100"
       y1="-197"
       x1="0"
       gradientTransform="matrix(1,0,0,1.7590455,-269.98622,238.06212)"
       gradientUnits="userSpaceOnUse"
       id="linearGradient851"
       xlink:href="#linearGradient859" />
    <linearGradient
       y2="207.20662"
       x2="66.064034"
       y1="297"
       x1="38.774723"
       gradientTransform="matrix(1,0,0,1.7590453,269.9862,-238.0621)"
       gradientUnits="userSpaceOnUse"
       id="linearGradient853"
       xlink:href="#linearGradient865" />
    <path
       id="SVGID_4_"
       d="m 64,42.28 v 11.21 c 0,3.02 -1.25,5.95 -3.54,7.91 -0.12,0.1 -0.24,0.2 -0.36,0.29 -1.2,0.94 -2.61,1.61 -4.15,1.92 v -4.49 c 2.41,-0.85 4.15,-3.25 4.15,-6.07 V 40.26 Z M 47.9,53.04 V 40.26 L 44,42.28 v 11.21 c 0,3.02 1.25,5.95 3.54,7.91 0.12,0.1 0.24,0.2 0.36,0.29 1.2,0.94 2.61,1.61 4.15,1.92 V 59.12 C 49.64,58.25 47.9,55.86 47.9,53.04 Z" />
    <linearGradient
       y2="-1489.8567"
       x2="1790.757"
       y1="-1489.8567"
       x1="1711.674"
       gradientTransform="rotate(-165.36937,1792.7347,-1400.2068)"
       gradientUnits="userSpaceOnUse"
       id="linearGradient1863"
       xlink:href="#linearGradient1857" />
  </defs>
  <metadata
     id="metadata5">
    <rdf:RDF>
      <cc:Work
         rdf:about="">
        <dc:format>image/svg+xml</dc:format>
        <dc:type
           rdf:resource="http://purl.org/dc/dcmitype/StillImage" />
        <dc:title></dc:title>
      </cc:Work>
    </rdf:RDF>
  </metadata>
  <g
     transform="translate(0,-121.09551)"
     id="layer1">
    <g
       transform="translate(-269.98624,12.625669)"
       id="g1851">
      <rect
         style="opacity:1;fill:url(#linearGradient851);fill-opacity:1;stroke:none;stroke-width:0.3131707;stroke-opacity:0"
         id="rect836"
         width="100"
         height="175.90454"
         x="-369.98624"
         y="-284.37439"
         transform="scale(-1)" />
      <path
         style="opacity:0.33000004;fill:#d9edff;fill-opacity:1;stroke:none;stroke-width:0.80937839;stroke-opacity:0"
         d="m 321.0645,161.66598 a 38.011877,38.011877 0 0 0 -25.46512,9.84951 l 4.34599,7.42128 33.22071,56.72571 a 38.011877,38.011877 0 0 0 25.91057,-35.98437 38.011877,38.011877 0 0 0 -38.01215,-38.01213 z"
         id="path839" />
      <rect
         style="opacity:1;fill:url(#linearGradient853);fill-opacity:1;stroke:none;stroke-width:0.35091421;stroke-opacity:0"
         id="rect841"
         width="100"
         height="175.90454"
         x="269.98624"
         y="108.46984" />
      <path
         style="opacity:0.1;fill:#004c63;fill-opacity:1;stroke:none;stroke-width:0.48896751px;stroke-linecap:butt;stroke-linejoin:miter;stroke-opacity:1"
         d="m 269.98644,127.78034 v 89.64052 l 23.15517,9.89707 6.8037,-48.38102 z"
         id="path843" />
      <path
         style="opacity:0.29500002;fill:#b4eeed;fill-opacity:1;stroke:none;stroke-width:0.26458332px;stroke-linecap:butt;stroke-linejoin:miter;stroke-opacity:1"
         d="m 293.14167,227.31761 46.86905,20.03273 -40.06548,-68.41369 z"
         id="path845" />
      <path
         style="opacity:0.1;fill:#000000;fill-opacity:1;stroke:none;stroke-width:0.42353451;stroke-opacity:0"
         d="m 321.0645,179.78682 a 19.890996,19.890996 0 0 0 -15.92875,8.01296 l 4.34547,7.41971 a 12.425967,12.425967 0 0 1 11.58328,-7.96748 12.425967,12.425967 0 0 1 12.42611,12.4261 12.425967,12.425967 0 0 1 -12.42611,12.42613 12.425967,12.425967 0 0 1 -1.77922,-0.14314 l 4.34598,7.42072 a 19.890996,19.890996 0 0 0 17.32453,-19.70371 19.890996,19.890996 0 0 0 -19.89129,-19.89129 z"
         id="path847" />
      <circle
         style="opacity:1;fill:#8eb9ee;fill-opacity:0.98823529;stroke:none;stroke-width:0.26458332;stroke-opacity:0"
         id="circle849"
         cx="321.06473"
         cy="199.6781"
         r="12.425967" />
    </g>
  </g>
  <style
     type="text/css"
     id="style2">
	.st0{clip-path:url(#SVGID_1_);}
	.st1{fill:#304FFE;}
	.st2{opacity:0.2;}
	.st3{opacity:0.3;}
	.st4{opacity:0.3;fill:#FFFFFF;}
	.st5{fill:url(#SVGID_2_);}
	.st6{fill:#FAFAFA;}
	.st7{fill:#FFFFFF;}
</style>
</svg>
