<?xml version="1.0" encoding="UTF-8" standalone="no"?>
<svg
   xmlns:dc="http://purl.org/dc/elements/1.1/"
   xmlns:cc="http://creativecommons.org/ns#"
   xmlns:rdf="http://www.w3.org/1999/02/22-rdf-syntax-ns#"
   xmlns:svg="http://www.w3.org/2000/svg"
   xmlns="http://www.w3.org/2000/svg"
   xmlns:xlink="http://www.w3.org/1999/xlink"
   id="svg8"
   version="1.1"
   viewBox="0 0 423.33333 846.66666"
   height="3200"
   width="1600">
  <defs
     id="defs2">
    <linearGradient
       id="linearGradient1857">
      <stop
         id="stop1853"
         offset="0"
         style="stop-color:#ffa94f;stop-opacity:1" />
      <stop
         id="stop1855"
         offset="1"
         style="stop-color:#ff9215;stop-opacity:0.77872342" />
    </linearGradient>
    <linearGradient
       id="linearGradient915">
      <stop
         style="stop-color:#ff00f1;stop-opacity:1"
         offset="0"
         id="stop911" />
      <stop
         style="stop-color:#03e9ff;stop-opacity:1"
         offset="1"
         id="stop913" />
    </linearGradient>
    <linearGradient
       gradientTransform="matrix(4.2238715,-0.28288245,0.28288245,4.2238715,-547.93035,365.11336)"
       gradientUnits="userSpaceOnUse"
       y2="-192.10326"
       x2="188.69228"
       y1="-192.10326"
       x1="72.162773"
       id="linearGradient909"
       xlink:href="#linearGradient915" />
    <linearGradient
       gradientTransform="matrix(16.000002,0,0,16.000002,-2027.4325,3186.9696)"
       gradientUnits="userSpaceOnUse"
       y2="-24.150707"
       x2="272.32529"
       y1="8.3552446"
       x1="105.99641"
       id="linearGradient925"
       xlink:href="#linearGradient915" />
    <linearGradient
       gradientTransform="matrix(4.2333338,0,0,4.2333338,-554.02514,322.3546)"
       gradientUnits="userSpaceOnUse"
       y2="-197.77086"
       x2="274.03275"
       y1="-197.77086"
       x1="161.01785"
       id="linearGradient935"
       xlink:href="#linearGradient915" />
    <path
       id="SVGID_4_"
       d="m 64,42.28 v 11.21 c 0,3.02 -1.25,5.95 -3.54,7.91 -0.12,0.1 -0.24,0.2 -0.36,0.29 -1.2,0.94 -2.61,1.61 -4.15,1.92 v -4.49 c 2.41,-0.85 4.15,-3.25 4.15,-6.07 V 40.26 Z M 47.9,53.04 V 40.26 L 44,42.28 v 11.21 c 0,3.02 1.25,5.95 3.54,7.91 0.12,0.1 0.24,0.2 0.36,0.29 1.2,0.94 2.61,1.61 4.15,1.92 V 59.12 C 49.64,58.25 47.9,55.86 47.9,53.04 Z" />
    <linearGradient
       y2="-1489.8567"
       x2="1790.757"
       y1="-1489.8567"
       x1="1711.674"
       gradientTransform="rotate(-165.36937,1792.7347,-1400.2068)"
       gradientUnits="userSpaceOnUse"
       id="linearGradient1863"
       xlink:href="#linearGradient1857" />
  </defs>
  <metadata
     id="metadata5">
    <rdf:RDF>
      <cc:Work
         rdf:about="">
        <dc:format>image/svg+xml</dc:format>
        <dc:type
           rdf:resource="http://purl.org/dc/dcmitype/StillImage" />
        <dc:title></dc:title>
      </cc:Work>
    </rdf:RDF>
  </metadata>
  <g
     transform="translate(0,549.66662)"
     id="layer1">
    <rect
       y="-549.66736"
       x="-3.7276195e-06"
       height="846.66669"
       width="423.33334"
       id="rect883"
       style="opacity:1;fill:#000000;fill-opacity:1;stroke:none;stroke-width:0;stroke-linejoin:round;stroke-miterlimit:4;stroke-dasharray:none;stroke-opacity:0.94117647;paint-order:markers stroke fill" />
    <path
       id="path901"
       d="m -3.7276195e-6,-549.66736 v 266.71879 L 221.50249,-100.04906 96.951636,-549.66736 Z"
       style="fill:url(#linearGradient909);fill-opacity:1;stroke:none;stroke-width:1.12006938px;stroke-linecap:butt;stroke-linejoin:miter;stroke-opacity:1" />
    <path
       id="path917"
       transform="matrix(0.26458333,0,0,0.26458333,0,-549.66662)"
       d="M 1600 1917.6387 L 1188.1934 2465.0273 L 661.91211 2628.3418 L 250.80664 3200 L 283.60742 3200 L 678.32422 2651.1543 L 1204.3242 2487.9062 L 1600 1961.9473 L 1600 1917.6387 z M 1599.9961 2023.4062 L 1226.1895 2520.3008 L 700.04102 2683.5898 L 328.64844 3200 L 1599.9961 3200 L 1599.9961 2023.4062 z "
       style="fill:url(#linearGradient925);fill-opacity:1;stroke:none;stroke-width:4.23333311px;stroke-linecap:butt;stroke-linejoin:miter;stroke-opacity:1" />
    <path
       id="path927"
       d="m 185.207,-549.66736 73.61831,319.60926 164.50804,-221.36471 v -98.24455 z"
       style="fill:url(#linearGradient935);fill-opacity:1;stroke:none;stroke-width:1.12006938px;stroke-linecap:butt;stroke-linejoin:miter;stroke-opacity:1" />
  </g>
  <style
     type="text/css"
     id="style2">
	.st0{clip-path:url(#SVGID_1_);}
	.st1{fill:#304FFE;}
	.st2{opacity:0.2;}
	.st3{opacity:0.3;}
	.st4{opacity:0.3;fill:#FFFFFF;}
	.st5{fill:url(#SVGID_2_);}
	.st6{fill:#FAFAFA;}
	.st7{fill:#FFFFFF;}
</style>
</svg>
