<?xml version="1.0" encoding="UTF-8" standalone="no"?>
<svg
   xmlns:dc="http://purl.org/dc/elements/1.1/"
   xmlns:cc="http://creativecommons.org/ns#"
   xmlns:rdf="http://www.w3.org/1999/02/22-rdf-syntax-ns#"
   xmlns:svg="http://www.w3.org/2000/svg"
   xmlns="http://www.w3.org/2000/svg"
   xmlns:sodipodi="http://sodipodi.sourceforge.net/DTD/sodipodi-0.dtd"
   xmlns:inkscape="http://www.inkscape.org/namespaces/inkscape"
   version="1.1"
   id="svg62"
   width="701"
   height="1280"
   viewBox="0 0 701 1280"
   sodipodi:docname="final_maybe1.svg"
   inkscape:version="1.0.1 (3bc2e813f5, 2020-09-07)">
  <metadata
     id="metadata68">
    <rdf:RDF>
      <cc:Work
         rdf:about="">
        <dc:format>image/svg+xml</dc:format>
        <dc:type
           rdf:resource="http://purl.org/dc/dcmitype/StillImage" />
        <dc:title />
      </cc:Work>
    </rdf:RDF>
  </metadata>
  <defs
     id="defs66">
    <inkscape:path-effect
       effect="bend_path"
       id="path-effect292"
       is_visible="true"
       lpeversion="1"
       bendpath="M 37.367863,644.451 H 738.36786"
       prop_scale="1"
       scale_y_rel="false"
       vertical="false"
       hide_knot="false" />
    <inkscape:path-effect
       effect="fill_between_strokes"
       id="path-effect290"
       is_visible="true"
       lpeversion="1"
       linkedpath=""
       secondpath=""
       reversesecond="false"
       join="true"
       close="true" />
    <inkscape:path-effect
       effect="lattice2"
       gridpoint0="37.367863,4.4510031"
       gridpoint1="738.36786,4.4510031"
       gridpoint2="37.367863,1284.451"
       gridpoint3="738.36786,1284.451"
       gridpoint4="212.61786,4.4510031"
       gridpoint5="563.11786,4.4510031"
       gridpoint6="212.61786,1284.451"
       gridpoint7="563.11786,1284.451"
       gridpoint8x9="387.86786,4.4510031"
       gridpoint10x11="387.86786,1284.451"
       gridpoint12="37.367863,324.451"
       gridpoint13="738.36786,324.451"
       gridpoint14="37.367863,964.451"
       gridpoint15="738.36786,964.451"
       gridpoint16="212.61786,324.451"
       gridpoint17="563.11786,324.451"
       gridpoint18="212.61786,964.451"
       gridpoint19="563.11786,964.451"
       gridpoint20x21="387.86786,324.451"
       gridpoint22x23="387.86786,964.451"
       gridpoint24x26="37.367863,644.451"
       gridpoint25x27="738.36786,644.451"
       gridpoint28x30="212.61786,644.451"
       gridpoint29x31="563.11786,644.451"
       gridpoint32x33x34x35="387.86786,644.451"
       id="path-effect288"
       is_visible="true"
       lpeversion="1"
       horizontal_mirror="true"
       vertical_mirror="true"
       perimetral="true"
       live_update="true" />
    <inkscape:path-effect
       effect="join_type"
       id="path-effect286"
       is_visible="true"
       lpeversion="1"
       linecap_type="butt"
       line_width="1"
       linejoin_type="extrp_arc"
       miter_limit="100"
       attempt_force_join="true" />
    <inkscape:path-effect
       effect="simplify"
       id="path-effect284"
       is_visible="true"
       lpeversion="1"
       steps="0"
       threshold="0.002"
       smooth_angles="0"
       helper_size="5"
       simplify_individual_paths="false"
       simplify_just_coalesce="false" />
    <filter
       style="color-interpolation-filters:sRGB;"
       inkscape:label="Cross Blur"
       id="filter2368">
      <feFlood
         flood-opacity="1"
         flood-color="rgb(170,255,255)"
         result="flood"
         id="feFlood2354" />
      <feColorMatrix
         in="SourceGraphic"
         values="1 0 0 0 0 0 1 0 0 0 0 0 1 0 0 -0.2125 -0.7154 -0.0721 1 0 "
         result="colormatrix1"
         id="feColorMatrix2356" />
      <feGaussianBlur
         in="colormatrix1"
         stdDeviation="0.01 0.01"
         result="blur"
         id="feGaussianBlur2358" />
      <feColorMatrix
         in="blur"
         values="1 0 0 0 0 0 1 0 0 0 0 0 1 0 0 0 0 0 100 -0 "
         result="colormatrix2"
         id="feColorMatrix2360" />
      <feBlend
         in="colormatrix2"
         in2="BackgroundImage"
         mode="multiply"
         result="blend"
         id="feBlend2362" />
      <feComposite
         in="blend"
         in2="blend"
         operator="arithmetic"
         k2="1"
         result="composite1"
         id="feComposite2364" />
      <feComposite
         in2="SourceGraphic"
         operator="in"
         id="feComposite2366"
         result="fbSourceGraphic" />
      <feColorMatrix
         result="fbSourceGraphicAlpha"
         in="fbSourceGraphic"
         values="0 0 0 -1 0 0 0 0 -1 0 0 0 0 -1 0 0 0 0 1 0"
         id="feColorMatrix2604" />
      <feColorMatrix
         id="feColorMatrix2606"
         in="fbSourceGraphic"
         values="1 0 0 0 0 0 1 0 0 0 0 0 1 0 0 -0.2125 -0.7154 -0.0721 1 0 "
         result="colormatrix" />
      <feComposite
         in2="colormatrix"
         id="feComposite2608"
         in="fbSourceGraphic"
         operator="arithmetic"
         k2="1"
         k3="0"
         k4="0"
         result="composite" />
      <feGaussianBlur
         id="feGaussianBlur2610"
         stdDeviation="0.01 0.01"
         result="blur1" />
      <feGaussianBlur
         id="feGaussianBlur2612"
         in="composite"
         stdDeviation="0.01 0.01"
         result="blur2" />
      <feBlend
         in2="blur1"
         id="feBlend2614"
         in="blur2"
         mode="darken"
         result="fbSourceGraphic" />
      <feColorMatrix
         result="fbSourceGraphicAlpha"
         in="fbSourceGraphic"
         values="0 0 0 -1 0 0 0 0 -1 0 0 0 0 -1 0 0 0 0 1 0"
         id="feColorMatrix2616" />
      <feColorMatrix
         id="feColorMatrix2618"
         in="fbSourceGraphic"
         values="1 0 0 0 0 0 1 0 0 0 0 0 1 0 0 -0.2125 -0.7154 -0.0721 1 0 "
         result="colormatrix" />
      <feComposite
         in2="colormatrix"
         id="feComposite2620"
         in="fbSourceGraphic"
         operator="arithmetic"
         k2="1"
         k3="0"
         k4="0"
         result="composite" />
      <feGaussianBlur
         id="feGaussianBlur2622"
         stdDeviation="0.01 0.01"
         result="blur1" />
      <feGaussianBlur
         id="feGaussianBlur2624"
         in="composite"
         stdDeviation="0.01 0.01"
         result="blur2" />
      <feBlend
         in2="blur1"
         id="feBlend2626"
         in="blur2"
         mode="darken"
         result="fbSourceGraphic" />
      <feColorMatrix
         result="fbSourceGraphicAlpha"
         in="fbSourceGraphic"
         values="0 0 0 -1 0 0 0 0 -1 0 0 0 0 -1 0 0 0 0 1 0"
         id="feColorMatrix2628" />
      <feColorMatrix
         id="feColorMatrix2630"
         in="fbSourceGraphic"
         values="1 0 0 0 0 0 1 0 0 0 0 0 1 0 0 -0.2125 -0.7154 -0.0721 1 0 "
         result="colormatrix" />
      <feComposite
         in2="colormatrix"
         id="feComposite2632"
         in="fbSourceGraphic"
         operator="arithmetic"
         k2="1"
         k3="0"
         k4="0"
         result="composite" />
      <feGaussianBlur
         id="feGaussianBlur2634"
         stdDeviation="0.01 0.01"
         result="blur1" />
      <feGaussianBlur
         id="feGaussianBlur2636"
         in="composite"
         stdDeviation="0.01 0.01"
         result="blur2" />
      <feBlend
         in2="blur1"
         id="feBlend2638"
         in="blur2"
         mode="lighten"
         result="blend" />
    </filter>
  </defs>
  <sodipodi:namedview
     pagecolor="#ffffff"
     bordercolor="#666666"
     borderopacity="1"
     objecttolerance="10"
     gridtolerance="10"
     guidetolerance="10"
     inkscape:pageopacity="0"
     inkscape:pageshadow="2"
     inkscape:window-width="2560"
     inkscape:window-height="1017"
     id="namedview64"
     showgrid="false"
     inkscape:zoom="0.44746601"
     inkscape:cx="-124.46416"
     inkscape:cy="741.34709"
     inkscape:window-x="0"
     inkscape:window-y="30"
     inkscape:window-maximized="1"
     inkscape:current-layer="g92"
     inkscape:document-rotation="0" />
  <g
     inkscape:groupmode="layer"
     inkscape:label="Image"
     id="g70">
    <g
       id="g92"
       transform="translate(-37.367863,-4.4510031)"
       style="filter:url(#filter2368)">
      <rect
         style="fill:#57abc1;fill-opacity:1;stroke:none;stroke-width:2;stroke-linecap:round;stroke-linejoin:round"
         id="rect870"
         width="701"
         height="1280"
         x="37.367863"
         y="4.4510031" />
      <path
         style="fill:#758fb4;stroke:none"
         d="m 211.64307,1280.201 c -2.79084,-11.1713 -5.46743,-20.0954 -7.62226,-25.4137 -1.30059,-3.21 -3.06604,-8.5363 -3.92323,-11.8363 -0.85718,-3.3 -2.52071,-8.925 -3.69673,-12.5 -7.142,-21.7111 -7.48751,-23.1002 -5.98224,-24.0525 0.80411,-0.5087 17.92708,-0.4611 38.44925,-1.0087 67.74613,-1.8078 365.71055,-2.1203 433,-2.8013 l 63,-0.6375 0.33209,-2.9124 c 0.18265,-1.6018 -0.0925,-3.8518 -0.61144,-5 -1.02387,-2.2654 -2.00404,-5.4682 -4.82836,-15.7772 -1.60972,-5.8756 -2.28347,-6.943 -5.53685,-8.7715 -3.64046,-2.046 -4.71977,-2.0807 -62.80221,-2.0152 -32.50396,0.037 -59.52519,-0.1974 -60.04719,-0.52 -1.27093,-0.7854 -4.62563,-8.4742 -5.51914,-12.6494 -0.39481,-1.8449 -1.29094,-4.4793 -1.99141,-5.8543 -0.70047,-1.375 -2.46001,-6.55 -3.91009,-11.5 -1.45008,-4.95 -3.10183,-10.35 -3.67056,-12 -0.56872,-1.65 -2.21134,-6.825 -3.65026,-11.5 -1.43891,-4.675 -2.99365,-8.9341 -3.45496,-9.4646 -1.87158,-2.1523 -16.07244,-2.803 -74.30962,-3.4049 -33.55,-0.3468 -61.60842,-1.0229 -62.35203,-1.5026 -1.8823,-1.2141 -4.1629,-6.969 -5.75629,-14.5256 -0.74196,-3.5187 -1.98354,-7.1187 -2.75906,-8 -0.77552,-0.8813 -1.73562,-3.1773 -2.13357,-5.1023 -1.1536,-5.5804 -5.08396,-16.7949 -6.47249,-18.468 -1.10696,-1.3338 -7.00195,-1.532 -45.56722,-1.532 -24.36267,0 -45.02421,-0.2795 -45.91454,-0.6212 -2.14144,-0.8217 -3.74584,-4.0777 -8.13717,-16.5136 -4.3925,-12.4393 -5.56518,-16.0621 -8.37243,-25.8652 -3.96703,-13.85318 -10.17407,-33.48343 -11.17509,-35.34211 -0.88204,-1.63775 -2.08274,-5.57107 -8.49645,-27.83311 -0.89927,-3.12137 -1.36699,-6.37371 -1.03939,-7.22742 0.52642,-1.37184 7.65934,-1.60923 61.38568,-2.04298 33.43453,-0.26993 69.56505,-0.84259 80.29005,-1.27258 l 19.5,-0.7818 0.1688,-4.5 c 0.2146,-5.72098 -0.32095,-7.60744 -2.45687,-8.65427 -1.89267,-0.92761 -84.29841,-1.94803 -173.30261,-2.14599 -34.63774,-0.077 -58.6123,-0.51651 -60.154,-1.10267 -2.01443,-0.76588 -2.78932,-2.02838 -3.61875,-5.89588 -0.58049,-2.70671 -1.91873,-7.12178 -2.97387,-9.81125 -1.05515,-2.68947 -2.24164,-6.91494 -2.63665,-9.38994 -0.39501,-2.475 -1.50695,-6.3 -2.47097,-8.5 -2.30619,-5.26299 -5.98615,-16.62142 -7.61417,-23.50165 -0.716,-3.0259 -2.00217,-6.8509 -2.85815,-8.5 -0.85597,-1.64909 -2.29802,-6.37335 -3.20453,-10.49835 -0.90652,-4.125 -2.71247,-9.62254 -4.01322,-12.21676 -1.30076,-2.59421 -2.36501,-5.84088 -2.36501,-7.21481 0,-1.37394 -0.7875,-2.91818 -1.75,-3.43166 -0.9625,-0.51349 -14.78417,-1.00099 -30.71483,-1.08335 -15.93066,-0.0824 -29.13251,-0.31743 -29.33744,-0.52236 -0.20494,-0.20494 -0.74064,-1.87076 -1.19046,-3.70184 -0.44981,-1.83107 -1.70386,-5.57922 -2.78676,-8.32922 -2.85954,-7.26172 -6.27167,-18.10823 -7.86458,-25 -0.76274,-3.3 -1.99389,-7.35 -2.7359,-9 -2.47444,-5.50238 -9.620027,-29.64241 -9.620027,-32.49945 0,-1.61198 5.049114,-2.93238 7.561137,-1.97731 1.41298,0.53722 12.15967,0.97676 23.88152,0.97676 17.64334,0 21.52495,-0.25604 22.54677,-1.48727 0.67888,-0.81799 0.98203,-2.14472 0.67368,-2.94827 -0.46117,-1.2018 -4.78348,-1.56259 -24.36187,-2.03356 -13.09068,-0.3149 -27.401237,-0.71951 -31.801237,-0.89913 -4.4,-0.17963 -18.6875,-0.39526 -31.75,-0.47918 l -23.75,-0.15259 v -199.5 -199.5 h 27.80887 c 20.675915,0 28.243885,0.32062 29.504836,1.25 0.972589,0.71684 2.30891,4.18958 3.133023,8.14189 0.790382,3.79055 1.913207,7.36805 2.495168,7.95 0.58195,0.58196 1.0581,1.89107 1.0581,2.90914 0,3.37821 -5.752332,4.74897 -19.928923,4.74897 -12.078556,0 -13.136689,0.15406 -15.032119,2.18856 -2.478852,2.66074 -2.606119,5.52725 -0.355797,8.01383 1.578164,1.74385 1.576165,1.96709 -0.03204,3.57874 -1.213185,1.21578 -3.974143,1.86521 -9.433158,2.21887 l -7.71796,0.5 0.283683,7 c 0.24396,6.0198 3.513005,18.87426 6.245807,24.55962 0.412318,0.85779 1.290568,4.23279 1.951666,7.5 0.661099,3.26721 1.814891,6.90515 2.563983,8.08432 0.749092,1.17917 2.070263,5.19798 2.935937,8.93069 0.865673,3.73271 2.061328,7.374 2.657012,8.09176 0.595683,0.71775 1.906255,4.44049 2.912381,8.27274 1.006125,3.83225 2.263171,7.77839 2.793434,8.7692 0.530263,0.99081 1.457998,4.47313 2.061634,7.73849 0.603636,3.26537 1.659332,6.28724 2.345991,6.71527 0.68666,0.42803 28.163769,0.75963 61.060229,0.73689 36.96346,-0.0256 60.26568,0.32691 61,0.92268 0.73438,0.59581 33.27276,1.08707 85.18824,1.28616 46.2,0.17717 85.0125,0.66425 86.25,1.0824 1.47008,0.49674 2.25,1.56611 2.25,3.08503 0,1.27861 0.46646,2.79121 1.03659,3.36134 0.57012,0.57012 1.24431,2.18212 1.4982,3.58222 0.25389,1.4001 1.13465,3.83614 1.95725,5.41341 0.8226,1.57728 1.49911,4.21778 1.50335,5.86778 0.004,1.65 0.87578,4.575 1.93675,6.5 3.24486,5.88742 4.23869,8.29959 5.56209,13.5 3.73424,14.67401 6.83334,25.06345 7.62517,25.56268 0.49086,0.30948 1.57361,3.17776 2.40611,6.37395 1.53256,5.8839 1.22609,7.36911 -2.02551,9.81584 -0.55,0.41386 -25.18281,0.7219 -54.73959,0.68455 -29.55677,-0.0374 -54.19427,0.21309 -54.75,0.55654 -1.59555,0.98611 -1.21826,3.13311 1.90247,10.82596 1.60208,3.94926 3.49441,9.5713 4.20518,12.49342 1.73644,7.13891 0.71622,8.68706 -5.72472,8.68706 -5.74836,0 -6.85952,2.02561 -3.55959,6.48901 1.1153,1.50852 2.70059,5.99331 3.52287,9.96619 0.82227,3.97287 2.21731,8.02151 3.10008,8.99696 0.88278,0.97545 1.88766,4.19776 2.23307,7.16069 0.34542,2.96293 1.45199,6.97879 2.45906,8.92412 1.00707,1.94534 2.12117,5.77034 2.47578,8.5 0.3546,2.72967 1.2655,5.68049 2.0242,6.5574 0.75871,0.8769 2.90347,7.75201 4.76614,15.27802 1.86267,7.52601 3.85832,14.25196 4.43479,14.94655 0.57646,0.6946 2.20839,5.72857 3.62651,11.18661 1.59501,6.13888 3.42611,10.82774 4.80107,12.29403 l 2.22268,2.37032 -2.36078,1.91505 c -2.08905,1.69462 -4.27602,1.93814 -19,2.11561 -9.15157,0.11031 -18.40236,0.0936 -20.5573,-0.0371 -4.82653,-0.2927 -6.25265,1.49363 -3.51711,4.40548 1.30429,1.38835 2.24343,4.34824 2.77156,8.73515 0.47665,3.95922 1.50404,7.41453 2.54743,8.56746 1.18186,1.30594 1.64614,3.16795 1.43241,5.74481 -0.28597,3.44805 -0.65087,3.88865 -3.81621,4.60794 -1.925,0.43743 -14.38939,0.69279 -27.69864,0.56746 -13.30925,-0.12533 -24.46181,0.0353 -24.78348,0.35697 -0.60232,0.60232 3.07041,15.03026 4.53076,17.79864 1.60253,3.03789 7.95139,23.99807 7.95291,26.25582 8.6e-4,1.26322 0.86182,3.87176 1.91325,5.79676 3.7786,6.91799 4.96223,9.99901 5.6518,14.71175 0.38535,2.63354 1.63703,6.9537 2.78152,9.60037 l 2.0809,4.81211 26.53549,-0.15456 c 24.98473,-0.14553 26.77784,-0.0338 30.68248,1.91145 3.39232,1.69004 4.43871,2.92217 5.75,6.77059 0.88166,2.58751 1.60301,5.82647 1.60301,7.19769 0,1.37121 0.67912,3.24353 1.50914,4.1607 0.83003,0.91718 2.89418,7.25261 4.587,14.07875 1.69281,6.82613 3.89675,14.43615 4.89763,16.91115 2.52457,6.24277 7.80179,23.74031 8.48955,28.14855 0.31309,2.00671 1.39336,4.70671 2.40061,6 1.00725,1.2933 2.40297,4.15145 3.10161,6.35145 2.69321,8.4809 2.52494,8.29682 8.20696,8.97803 4.47595,0.53662 88.21288,0.0692 97.3075,-0.54315 4.88654,-0.32902 15.73505,0.75836 19.4934,1.95388 2.37774,0.75635 20.21277,1.11124 55.84571,1.11124 47.66429,0 52.61238,0.15363 55.2566,1.71561 1.78111,1.05213 2.90429,2.5517 2.90429,3.87755 0,1.18907 0.675,2.72215 1.5,3.40684 0.825,0.68469 1.5,1.8102 1.5,2.50112 0,2.55244 -5.9714,3.64594 -22.1281,4.05217 -47.37055,1.19102 -109.27608,2.35854 -123.3719,2.32675 -12.64879,-0.0285 -16.41612,0.27552 -17.98672,1.45162 -1.86731,1.39828 -1.88577,1.59926 -0.30712,3.34365 0.92378,1.02076 2.39584,5.44891 3.27124,9.84031 1.98482,9.95679 5.16342,19.06559 8.02059,22.98438 1.44206,1.97788 2.41431,5.2146 2.8536,9.5 0.36647,3.575 1.96138,10.325 3.54424,15 6.05441,17.88185 7.12411,21.59795 7.11429,24.71485 -0.006,2.0629 0.6258,3.5552 1.76467,4.1647 1.12777,0.6035 2.27029,3.2594 3.13396,7.2852 1.48959,6.9432 4.24915,12.3143 7.11489,13.8479 2.66032,1.4238 80.15136,1.3204 83.29317,-0.1111 2.01238,-0.9169 3.07095,-0.6818 6.4038,1.4221 4.24258,2.6783 4.19776,2.5654 9.68783,24.3879 0.7211,2.8663 2.06676,6.3648 2.99033,7.7744 0.92358,1.4095 2.0004,5.1338 2.39292,8.2763 0.61728,4.9416 1.09203,5.8948 3.51443,7.0558 2.25139,1.0791 13.92126,1.3183 59.4973,1.22 48.41857,-0.1045 58.01063,0.1155 65.69658,1.5067 14.98288,2.7121 13.69408,1.7341 15.77507,11.9703 1.00465,4.9418 2.41051,9.885 3.12413,10.985 0.71362,1.1 1.85041,4.475 2.52619,7.5 0.67578,3.025 2.09403,7.6084 3.15165,10.1854 1.05763,2.5769 1.92296,5.9555 1.92296,7.5079 0,1.5525 1.125,4.9359 2.5,7.5189 1.375,2.5829 2.5,5.5617 2.5,6.6195 0,3.6436 2.1514,4.234 12.86887,3.5316 l 10.13113,-0.6639 v 18.5024 l 0,20.8482 -39.25,-1.7019 c -21.57014,-0.9353 -88.75,0.9324 -149.25,1.2853 -60.5,0.3528 -108.95059,1.5944 -110.16564,2.0467 -1.21505,0.4522 -30.62547,0.2973 -62.85884,0.368 -49.83836,0.1094 -58.68829,0.3428 -59.15537,1.56 -0.30209,0.7872 0.34518,4.01 1.43838,7.1616 3.04834,8.7883 6.24147,19.7057 6.24147,21.3398 0,0.8072 0.8795,3.1927 1.95445,5.3012 1.07495,2.1084 2.46618,6.2985 3.09162,9.3112 0.62544,3.0128 2.45218,9.1193 4.05941,13.5702 1.60724,4.4509 3.20297,10.481 3.54607,13.4002 l 0.62381,5.3077 h -62.9692 -62.96921 z"
         id="path106"
         sodipodi:nodetypes="ssssssscsssscsssssssssssssssssssssscsssssssssssssssssssssssssssscccsssssssssscsssssssssssssssssscssssssssssssssssssssscssssssssssssssscsssssssssssssssssssssssssscssssssssssssssssssscccssssssssssscccs" />
      <path
         style="fill:#8184af;stroke:none"
         d="m 338.01941,1279.1433 c -0.3431,-2.9192 -1.93883,-8.9493 -3.54607,-13.4002 -1.60723,-4.4509 -3.43397,-10.5574 -4.05941,-13.5702 -0.62544,-3.0127 -2.01667,-7.2028 -3.09162,-9.3112 -1.07495,-2.1085 -1.95445,-4.494 -1.95445,-5.3012 0,-1.6341 -3.19313,-12.5515 -6.24147,-21.3398 -1.0932,-3.1516 -1.74047,-6.3744 -1.43838,-7.1616 0.46708,-1.2172 10.1963,-5.0618 60.03466,-5.1712 32.23337,-0.071 58.72096,3.1061 59.93601,2.6459 1.21505,-0.4601 58.45918,-1.063 127.20918,-1.3396 l 125,-0.5031 -123.39205,1.13 c -112.22916,1.0277 -123.48501,1.2774 -124.41968,2.7607 -1.03327,1.6397 3.14072,16.4265 8.92842,31.6297 1.31082,3.4433 2.38608,7.0433 2.38947,8 0.003,0.9567 0.66406,3.0008 1.46816,4.5424 1.38381,2.6531 7.20004,23.0368 8.25965,28.9471 l 0.49303,2.75 h -62.47582 -62.47582 z m 366.65487,-75.4396 c 6.49353,-0.1744 16.84353,-0.1738 23,0 6.15647,0.1752 0.84358,0.3179 -11.80642,0.3172 -12.65,-7e-4 -17.68711,-0.144 -11.19358,-0.3185 z m 11.94358,-37.3586 c -0.6875,-0.7118 -1.25,-2.1247 -1.25,-3.1399 0,-1.0152 -1.125,-3.9591 -2.5,-6.542 -1.375,-2.583 -2.5,-5.9664 -2.5,-7.5189 0,-1.5524 -0.86533,-4.931 -1.92296,-7.5079 -1.05762,-2.577 -2.47587,-7.1604 -3.15165,-10.1854 -0.67578,-3.025 -1.81257,-6.4 -2.52619,-7.5 -0.71362,-1.1 -2.11948,-6.0432 -3.12413,-10.985 -2.08099,-10.2362 -0.79219,-9.2582 -15.77507,-11.9703 -7.68595,-1.3912 -17.27801,-1.6112 -65.69658,-1.5067 -45.57604,0.098 -57.24591,-0.1409 -59.4973,-1.22 -2.4224,-1.161 -2.89715,-2.1142 -3.51443,-7.0558 -0.39252,-3.1425 -1.46934,-6.8668 -2.39292,-8.2763 -0.92357,-1.4096 -2.26923,-4.9081 -2.99033,-7.7744 -5.49007,-21.8225 -5.44525,-21.7096 -9.68783,-24.3879 -3.33285,-2.1039 -4.39142,-2.339 -6.4038,-1.4221 -3.14181,1.4315 -80.63285,1.5349 -83.29317,0.1111 -2.86574,-1.5336 -5.6253,-6.9047 -7.11489,-13.8479 -0.86367,-4.0258 -2.00619,-6.6817 -3.13396,-7.2852 -1.13887,-0.6095 -1.77116,-2.1018 -1.76467,-4.1647 0.01,-3.1169 -1.05988,-6.833 -7.11429,-24.7148 -1.58286,-4.675 -3.17777,-11.425 -3.54424,-15 -0.43929,-4.2854 -1.41154,-7.52212 -2.8536,-9.5 -2.85717,-3.91879 -6.03577,-13.02759 -8.02059,-22.98438 -0.8754,-4.3914 -2.34746,-8.81955 -3.27124,-9.84031 -1.57865,-1.74439 -1.56019,-1.94537 0.30712,-3.34365 1.5706,-1.1761 5.33793,-1.48014 17.98672,-1.45162 14.09582,0.0318 76.00135,-1.13573 123.3719,-2.32675 16.1567,-0.40623 22.1281,-1.49973 22.1281,-4.05217 0,-0.69092 -0.675,-1.81643 -1.5,-2.50112 -0.825,-0.68469 -1.5,-2.21777 -1.5,-3.40684 0,-1.32585 -1.12318,-2.82542 -2.90429,-3.87755 -2.64422,-1.56198 -7.59231,-1.71561 -55.2566,-1.71561 -35.63294,0 -53.46797,-0.35489 -55.84571,-1.11124 -3.75835,-1.19552 -14.60686,-2.2829 -19.4934,-1.95388 -9.09462,0.61237 -92.83155,1.07977 -97.3075,0.54315 -5.68202,-0.68121 -5.51375,-0.49713 -8.20696,-8.97803 -0.69864,-2.2 -2.09436,-5.05815 -3.10161,-6.35145 -1.00725,-1.29329 -2.08752,-3.99329 -2.40061,-6 -0.68776,-4.40824 -5.96498,-21.90578 -8.48955,-28.14855 -1.00088,-2.475 -3.20482,-10.08502 -4.89763,-16.91115 -1.69282,-6.82614 -3.75697,-13.16157 -4.587,-14.07875 -0.83002,-0.91717 -1.50914,-2.78949 -1.50914,-4.1607 0,-1.37122 -0.72135,-4.61018 -1.60301,-7.19769 -1.31129,-3.84842 -2.35768,-5.08055 -5.75,-6.77059 -3.90464,-1.94528 -5.69775,-2.05698 -30.68248,-1.91145 l -26.53549,0.15456 -2.0809,-4.81211 c -1.14449,-2.64667 -2.39617,-6.96683 -2.78152,-9.60037 -0.68957,-4.71274 -1.8732,-7.79376 -5.6518,-14.71175 -1.05143,-1.925 -1.91239,-4.53354 -1.91325,-5.79676 -0.002,-2.25775 -6.35038,-23.21793 -7.95291,-26.25582 -1.46035,-2.76838 -5.13308,-17.19632 -4.53076,-17.79864 0.32167,-0.32166 11.47423,-0.4823 24.78348,-0.35697 13.30925,0.12533 25.77364,-0.13003 27.69864,-0.56746 3.16534,-0.71929 3.53024,-1.15989 3.81621,-4.60794 0.21373,-2.57686 -0.25055,-4.43887 -1.43241,-5.74481 -1.04339,-1.15293 -2.07078,-4.60824 -2.54743,-8.56746 -0.52813,-4.38691 -1.46727,-7.3468 -2.77156,-8.73515 -2.73554,-2.91185 -1.30942,-4.69818 3.51711,-4.40548 2.15494,0.13069 11.40573,0.14736 20.5573,0.0371 14.72398,-0.17747 16.91095,-0.42099 19,-2.11561 l 2.36078,-1.91505 -2.22268,-2.37032 c -1.37496,-1.46629 -3.20606,-6.15515 -4.80107,-12.29403 -1.41812,-5.45804 -3.05005,-10.49201 -3.62651,-11.18661 -0.57647,-0.69459 -2.57212,-7.42054 -4.43479,-14.94655 -1.86267,-7.52601 -4.00743,-14.40112 -4.76614,-15.27802 -0.7587,-0.87691 -1.6696,-3.82773 -2.0242,-6.5574 -0.35461,-2.72966 -1.46871,-6.55466 -2.47578,-8.5 -1.00707,-1.94533 -2.11364,-5.96119 -2.45906,-8.92412 -0.34541,-2.96293 -1.35029,-6.18524 -2.23307,-7.16069 -0.88277,-0.97545 -2.27781,-5.02409 -3.10008,-8.99696 -0.82228,-3.97288 -2.40757,-8.45767 -3.52287,-9.96619 -3.29993,-4.4634 -2.18877,-6.48901 3.55959,-6.48901 6.44094,0 7.46116,-1.54815 5.72472,-8.68706 -0.71077,-2.92212 -2.6031,-8.54416 -4.20518,-12.49342 -3.12073,-7.69285 -3.49802,-9.83985 -1.90247,-10.82596 0.55573,-0.34345 25.19323,-0.5939 54.75,-0.55654 29.55678,0.0374 54.18959,-0.27069 54.73959,-0.68455 3.2516,-2.44673 3.55807,-3.93194 2.02551,-9.81584 -0.8325,-3.19619 -1.91525,-6.06447 -2.40611,-6.37395 -0.79183,-0.49923 -3.89093,-10.88867 -7.62517,-25.56268 -1.3234,-5.20041 -2.31723,-7.61258 -5.56209,-13.5 -1.06097,-1.925 -1.9325,-4.85 -1.93675,-6.5 -0.004,-1.65 -0.68075,-4.2905 -1.50335,-5.86778 -0.8226,-1.57727 -1.70336,-4.01331 -1.95725,-5.41341 -0.25389,-1.4001 -0.92808,-3.0121 -1.4982,-3.58222 -0.57013,-0.57018 -1.03659,-2.08278 -1.03659,-3.36139 0,-1.51892 -0.77992,-2.58829 -2.25,-3.08503 -1.2375,-0.41815 -40.05,-0.90523 -86.25,-1.0824 -51.91548,-0.19909 -84.45386,-0.69035 -85.18824,-1.28616 -0.73432,-0.59577 -24.03654,-0.94824 -61,-0.92268 -32.89646,0.0227 -60.373569,-0.30886 -61.060229,-0.73689 -0.686659,-0.42803 -1.742355,-3.4499 -2.345991,-6.71527 -0.603636,-3.26536 -1.531371,-6.74768 -2.061634,-7.73849 -0.530263,-0.99081 -1.787309,-4.93695 -2.793434,-8.7692 -1.006126,-3.83225 -2.316698,-7.55499 -2.912381,-8.27274 -0.595684,-0.71776 -1.791339,-4.35905 -2.657012,-8.09176 -0.865674,-3.73271 -2.186845,-7.75152 -2.935937,-8.93069 -0.749092,-1.17917 -1.902884,-4.81711 -2.563983,-8.08432 -0.661098,-3.26721 -1.539348,-6.64221 -1.951666,-7.5 -2.732802,-5.68536 -6.001847,-18.53982 -6.245807,-24.55962 l -0.283683,-7 7.717958,-0.5 c 5.459015,-0.35366 8.219973,-1.00309 9.433158,-2.21887 1.608207,-1.61165 1.610206,-1.83489 0.03204,-3.57874 -2.250322,-2.48658 -2.123055,-5.35309 0.355797,-8.01383 1.895432,-2.0345 2.953565,-2.18856 15.032121,-2.18856 14.176591,0 19.928923,-1.37076 19.928923,-4.74897 0,-1.01807 -0.47615,-2.32718 -1.0581,-2.90914 -0.581961,-0.58195 -1.704786,-4.15945 -2.495168,-7.95 -0.824113,-3.95231 -2.160434,-7.42505 -3.133023,-8.14189 -1.260951,-0.92938 -8.828921,-1.25 -29.504836,-1.25 h -27.80887 v -71.5 -71.5 h 3.5 c 4.414709,0 7.19747,2.67981 7.989799,7.69422 0.330744,2.09318 2.656026,10.33078 5.167293,18.30578 7.440959,23.63016 6.298904,21.40531 11.38329,22.17588 2.45279,0.37173 30.109618,0.73084 61.459615,0.79803 67.15837,0.14392 62.63135,-0.57171 66.3241,10.48458 1.27826,3.82717 2.9962,9.67717 3.81764,13 0.82145,3.32283 2.33295,8.29151 3.3589,11.04151 1.02595,2.75 2.87654,8.375 4.11242,12.5 1.23589,4.125 2.57567,8.175 2.97729,9 0.40163,0.825 1.94116,5.55 3.42119,10.5 4.94322,16.53279 5.74829,18.99387 6.54678,20.0133 0.43652,0.55731 1.34422,3.25731 2.0171,6 0.67288,2.74268 2.02321,6.7867 3.00074,8.9867 0.97753,2.2 2.0726,6.3267 2.43348,9.17045 0.55904,4.40516 0.38486,5.30977 -1.17674,6.11168 -1.0081,0.51768 -8.3579,0.84895 -16.3329,0.73616 -10.61434,-0.15011 -15.23694,0.16181 -17.25,1.164 -3.21997,1.60304 -3.17173,1.3726 -1.25,5.97195 3.29628,7.8891 1.34177,11.30795 -5.36497,9.38449 -3.51397,-1.0078 -8.79991,-0.41319 -10.88503,1.22443 -1.84543,1.44937 -1.53584,4.80542 1.1464,12.42724 1.31801,3.74528 2.92911,9.13545 3.5802,11.97815 0.65109,2.84271 1.8084,5.99271 2.5718,7 0.7634,1.0073 1.40627,2.73145 1.42862,3.83145 0.0223,1.1 2.31769,8.525 5.10078,16.5 2.78309,7.975 5.51491,16.75 6.07071,19.5 1.48936,7.36909 4.58342,16.45264 7.15306,21 l 2.26034,4 75.46904,0.69168 c 41.50798,0.38043 79.06905,1.0095 83.46905,1.39794 4.4,0.38844 35.9,0.86321 70,1.05504 34.1,0.19183 62.90715,0.55738 64.01589,0.81235 1.57012,0.36107 2.03834,1.31991 2.11743,4.33615 0.0558,2.12991 0.76815,4.96027 1.58288,6.2897 1.44606,2.35959 2.33458,5.06536 10.80935,32.91714 2.25929,7.425 4.802,15.525 5.65047,18 0.84848,2.475 1.97417,6.3 2.50154,8.5 0.52738,2.2 1.39956,4.81565 1.93819,5.81255 0.53863,0.9969 0.70261,2.6844 0.3644,3.75 -0.59844,1.88552 -2.09403,1.93786 -55.79754,1.95276 -30.35043,0.008 -55.80672,0.41056 -56.56952,0.89364 -1.42031,0.89947 -1.24551,2.9394 0.73615,8.59105 0.57855,1.65 2.03549,6.15 3.23766,10 1.20217,3.85 2.3842,7.52771 2.62675,8.17268 0.7219,1.9197 -3.49416,5.32732 -6.59121,5.32732 -4.16883,0 -5.60985,2.13745 -3.82809,5.67817 0.78101,1.552 1.71694,4.39683 2.07984,6.32183 0.36291,1.925 1.51775,5.75 2.56631,8.5 1.64536,4.31519 10.07593,30.52072 14.79864,46 0.83902,2.75 1.87454,5.45 2.30114,6 0.84656,1.09143 2.84425,7.83399 6.64666,22.43367 1.35132,5.18852 3.09957,10.35114 3.885,11.4725 1.84583,2.63529 1.83591,8.01045 -0.0176,9.54874 -1.04081,0.8638 -6.92596,1.12624 -21.01467,0.93712 -12.83819,-0.17233 -19.93491,0.10323 -20.63285,0.80117 -1.18078,1.18078 1.41097,11.08903 5.79673,22.16084 2.11983,5.35147 2.30234,6.56528 1.15672,7.69288 -1.05084,1.0343 -7.24855,1.39916 -27.24688,1.60401 -28.16273,0.28849 -29.18297,0.4951 -28.00667,5.6714 0.33467,1.47272 1.87971,6.50267 3.43342,11.17767 1.55372,4.675 3.14114,10.3 3.52761,12.5 0.38647,2.2 1.46156,5.575 2.38908,7.5 1.68821,3.50374 3.28003,8.36543 9.16778,28 1.73173,5.775 3.82128,12.21319 4.64343,14.30709 l 1.49482,3.80709 28.34802,-0.19272 c 22.73783,-0.15457 28.75937,0.0815 30.42653,1.19292 1.33017,0.88675 3.10969,4.62594 4.94264,10.38562 1.57527,4.95 3.60607,11.25 4.51288,14 0.90681,2.75 2.77207,8.79324 4.14502,13.42943 1.37296,4.63618 3.07785,9.58618 3.78866,11 0.71081,1.41381 1.57306,4.71583 1.91613,7.3378 0.34306,2.62198 1.27288,6.02252 2.06626,7.55676 1.42684,2.7592 4.96208,13.29664 8.19246,24.41913 2.96251,10.20021 -2.92231,9.20989 57.06793,9.6036 60.07229,0.39425 67.57376,0.56748 69.24269,1.59893 0.658,0.40667 25.29816,0.67955 54.75591,0.6064 58.6232,-0.14557 58.33201,-0.17321 58.33201,5.53674 0,1.39848 0.49169,3.46142 1.09264,4.58431 1.96073,3.66365 -0.22013,4.31722 -14.89288,4.46319 -7.53487,0.075 -35.74976,0.68114 -62.69976,1.34707 -26.95,0.66592 -56.48012,1.28937 -65.62248,1.38543 -19.12179,0.20092 -20.68722,0.7087 -18.37212,5.95932 0.76921,1.74454 2.79315,7.89689 4.49765,13.67189 5.03309,17.05256 11.13792,35.99245 14.04932,43.5872 1.49426,3.898 3.05223,9.073 3.46216,11.5 0.40993,2.4271 2.51501,9.5878 4.67796,15.9128 2.16295,6.325 4.46698,13.3994 5.12007,15.7209 0.65309,2.3215 1.97054,5.134 2.92765,6.25 1.69964,1.9818 2.76789,2.0291 45.81574,2.0291 26.78481,0 44.79181,0.3833 45.90139,0.9772 2.77762,1.4865 6.60093,8.7744 8.40572,16.0228 0.89015,3.575 2.98558,10.55 4.65651,15.5 1.67093,4.95 3.24483,9.9 3.49756,11 0.25273,1.1 1.13609,2.4969 1.96303,3.1043 2.43915,1.7914 14.695,2.6146 35.76984,2.4024 l 19.75,-0.1988 v 33.096 33.0961 h -4.35331 c -2.39432,0 -7.00682,0.2673 -10.25,0.5941 -4.17833,0.4209 -6.26095,0.2169 -7.14669,-0.7 z M 37.367863,62.992733 V 4.4510031 H 146.32255 255.27723 l 0.60961,3.75 c 0.33529,2.0624999 1.21147,5.5499999 1.94708,7.7499999 0.73561,2.2 2.70951,8.05 4.38645,13 4.92442,14.535958 9.26357,28.229163 11.20323,35.354467 4.40263,16.1729 5.22071,18.731461 6.44138,20.145533 0.71217,0.825 1.83999,4.2 2.50627,7.5 0.66628,3.3 2.25246,9.149997 3.52485,12.999997 1.27238,3.85 2.46155,8.575 2.64259,10.5 l 0.32917,3.5 -84,0.71997 c -46.2,0.39599 -102.7875,0.97727 -125.749997,1.29173 l -41.75,0.57176 z"
         id="path104"
         sodipodi:nodetypes="sssssssssscssscsscccsccsccssssssssscsssssssssssssssssssssssssssssssssssscssscssssssssssscssssssssssssssssssssscsssssssssssssssssscsssssssssscccsssssssssssssssssssssssssssscssssssssssscsssssssssssssssssssssssscssssssssssssssssssssssssssssssscccsssccccsssssssscsscc" />
      <path
         style="fill:#9176a6;stroke:none"
         d="m 463.10183,1281.701 c -1.05961,-5.9103 -6.87584,-26.294 -8.25965,-28.9471 -0.8041,-1.5416 -1.46477,-3.5857 -1.46816,-4.5424 -0.003,-0.9567 -1.07865,-4.5567 -2.38947,-8 -5.78814,-15.2044 -9.96171,-29.99 -8.92822,-31.6297 0.93137,-1.4778 8.75982,-1.6899 83.41968,-2.2606 173.24875,-1.3243 210.59872,-1.4883 185.89185,-0.8166 -14.025,0.3814 -51.41663,0.7372 -83.09252,0.7908 -31.67588,0.054 -58.33838,0.3837 -59.25,0.7335 -2.21881,0.8515 -2.06553,3.4147 0.77277,12.9221 2.24616,7.5239 3.11435,10.2344 8.48821,26.5 4.81791,14.5828 13.63059,37.3766 13.64538,38.8389 0.01,0.9869 -15.80106,-0.8389 -65.45034,-0.8389 h -62.8865 z m 233.76603,-181.2 c -1.65,-0.4474 -5.05149,-0.8666 -7.55887,-0.9317 -5.0543,-0.1312 -7.7301,-1.5981 -8.424,-4.6183 -0.25273,-1.1 -1.82663,-6.05 -3.49756,-11 -1.67093,-4.95 -3.76636,-11.925 -4.65651,-15.5 -1.80479,-7.2484 -5.6281,-14.5363 -8.40572,-16.0228 -1.10958,-0.5939 -19.11658,-0.9772 -45.90139,-0.9772 -43.04785,0 -44.1161,-0.047 -45.81574,-2.0291 -0.95711,-1.116 -2.27456,-3.9285 -2.92765,-6.25 -0.65309,-2.3215 -2.95712,-9.3959 -5.12007,-15.7209 -2.16295,-6.325 -4.26803,-13.4857 -4.67796,-15.9128 -0.40993,-2.427 -1.9679,-7.602 -3.46216,-11.5 -2.9114,-7.59475 -9.01623,-26.53464 -14.04932,-43.5872 -1.7045,-5.775 -3.72844,-11.92735 -4.49765,-13.67189 -2.3151,-5.25062 -0.74967,-5.7584 18.37212,-5.95932 9.14236,-0.0961 38.67248,-0.71951 65.62248,-1.38543 26.95,-0.66593 55.16489,-1.27211 62.69976,-1.34707 14.67275,-0.14597 16.85361,-0.79954 14.89288,-4.46319 -0.60095,-1.12289 -1.09264,-3.18583 -1.09264,-4.58431 0,-5.70995 0.29119,-5.68231 -58.33203,-5.53674 -29.45775,0.0731 -54.09791,-0.19973 -54.75591,-0.6064 -1.66893,-1.03145 -9.1704,-1.20468 -69.24269,-1.59893 -59.99024,-0.39371 -54.10542,0.59661 -57.06793,-9.6036 -3.23038,-11.12249 -6.76562,-21.65993 -8.19246,-24.41913 -0.79338,-1.53424 -1.7232,-4.93478 -2.06626,-7.55676 -0.34307,-2.62197 -1.20532,-5.92399 -1.91613,-7.3378 -0.71081,-1.41382 -2.4157,-6.36382 -3.78866,-11 -1.37295,-4.63619 -3.23821,-10.67943 -4.14502,-13.42943 -0.90681,-2.75 -2.93761,-9.05 -4.51288,-14 -1.83295,-5.75968 -3.61247,-9.49887 -4.94264,-10.38562 -1.66716,-1.11141 -7.6887,-1.34749 -30.42653,-1.19292 l -28.34802,0.19272 -1.49482,-3.80709 c -0.82215,-2.0939 -2.9117,-8.53209 -4.64343,-14.30709 -5.88775,-19.63457 -7.47957,-24.49626 -9.16778,-28 -0.92752,-1.925 -2.00261,-5.3 -2.38908,-7.5 -0.38647,-2.2 -1.97389,-7.825 -3.52761,-12.5 -1.55371,-4.675 -3.09875,-9.70495 -3.43342,-11.17767 -1.1763,-5.1763 -0.15606,-5.38291 28.00667,-5.6714 19.99833,-0.20485 26.19604,-0.56971 27.24688,-1.60401 1.14562,-1.1276 0.96311,-2.34141 -1.15672,-7.69288 -4.38576,-11.07181 -6.97751,-20.98006 -5.79673,-22.16084 0.69794,-0.69794 7.79466,-0.9735 20.63285,-0.80117 14.08871,0.18912 19.97386,-0.0733 21.01467,-0.93712 1.85353,-1.53829 1.86345,-6.91345 0.0176,-9.54874 -0.78543,-1.12136 -2.53368,-6.28398 -3.885,-11.4725 -3.80241,-14.59968 -5.8001,-21.34224 -6.64666,-22.43367 -0.4266,-0.55 -1.46212,-3.25 -2.30114,-6 -4.72271,-15.47928 -13.15328,-41.68481 -14.79864,-46 -1.04856,-2.75 -2.2034,-6.575 -2.56631,-8.5 -0.3629,-1.925 -1.29883,-4.76983 -2.07984,-6.32183 -1.78174,-3.54072 -0.34072,-5.67817 3.82811,-5.67817 3.09705,0 7.31311,-3.40762 6.59121,-5.32732 -0.24255,-0.64497 -1.42458,-4.32268 -2.62675,-8.17268 -1.20217,-3.85 -2.65911,-8.35 -3.23766,-10 -1.98166,-5.65165 -2.15646,-7.69158 -0.73615,-8.59105 0.7628,-0.48308 26.21909,-0.88522 56.56952,-0.89364 53.70351,-0.0149 55.1991,-0.0672 55.79754,-1.95276 0.33821,-1.0656 0.17423,-2.7531 -0.3644,-3.75 -0.53863,-0.9969 -1.41081,-3.61255 -1.93819,-5.81255 -0.52737,-2.2 -1.65306,-6.025 -2.50154,-8.5 -0.84847,-2.475 -3.39118,-10.575 -5.65047,-18 -8.47477,-27.85178 -9.36329,-30.55755 -10.80935,-32.91714 -0.81473,-1.32943 -1.52703,-4.15979 -1.58288,-6.2897 -0.0791,-3.01624 -0.54731,-3.97508 -2.11743,-4.33615 -1.10874,-0.25497 -29.91589,-0.62052 -64.01589,-0.81235 -34.1,-0.19183 -65.6,-0.6666 -70,-1.05504 -4.4,-0.38844 -41.96107,-1.01751 -83.46905,-1.39794 l -75.46904,-0.69168 -2.26034,-4 c -2.56964,-4.54736 -5.6637,-13.63091 -7.15306,-21 -0.5558,-2.75 -3.28762,-11.525 -6.07071,-19.5 -2.78309,-7.975 -5.07844,-15.4 -5.10078,-16.5 -0.0224,-1.1 -0.66522,-2.82415 -1.42862,-3.83145 -0.7634,-1.00729 -1.92071,-4.15729 -2.5718,-7 -0.65109,-2.8427 -2.26219,-8.23287 -3.5802,-11.97815 -2.68224,-7.62182 -2.99183,-10.97787 -1.1464,-12.42724 2.08512,-1.63762 7.37106,-2.23223 10.88503,-1.22443 6.70674,1.92346 8.66125,-1.49539 5.36497,-9.38449 -1.92173,-4.59935 -1.96997,-4.36891 1.25,-5.97195 2.01306,-1.00219 6.63566,-1.31411 17.25,-1.164 7.975,0.11279 15.3248,-0.21848 16.3329,-0.73616 1.5616,-0.80191 1.73578,-1.70652 1.17674,-6.11168 -0.36088,-2.84375 -1.45595,-6.97045 -2.43348,-9.17045 -0.97753,-2.2 -2.32786,-6.24402 -3.00074,-8.9867 -0.67288,-2.74269 -1.58058,-5.44269 -2.0171,-6 -0.79849,-1.01943 -1.60356,-3.48051 -6.54678,-20.0133 -1.48003,-4.95 -3.01956,-9.675 -3.42119,-10.5 -0.40162,-0.825 -1.7414,-4.875 -2.97729,-9 -1.23588,-4.125 -3.08647,-9.75 -4.11242,-12.5 -1.02595,-2.75 -2.53745,-7.71868 -3.3589,-11.04151 -0.82144,-3.32283 -2.53938,-9.17283 -3.81764,-13 -3.69275,-11.05629 0.83427,-10.34066 -66.3241,-10.48458 -31.349997,-0.0672 -59.006825,-0.4263 -61.459615,-0.79803 -5.084386,-0.77057 -3.942331,1.45428 -11.38329,-22.17588 -2.511267,-7.975 -4.836549,-16.2126 -5.167293,-18.30578 -0.792329,-5.01441 -3.57509,-7.69422 -7.989799,-7.69422 h -3.5 v -32.95827 -32.95827 l 41.75,-0.57176 c 22.962497,-0.31446 79.549997,-0.89574 125.749997,-1.29173 l 84,-0.71997 -0.32917,-3.5 c -0.18104,-1.925 -1.37021,-6.65 -2.64259,-10.5 -1.27239,-3.85 -2.85857,-9.699997 -3.52485,-12.999997 -0.66628,-3.3 -1.7941,-6.675 -2.50627,-7.5 -1.22067,-1.414072 -2.03875,-3.972633 -6.44138,-20.145533 -2.50978,-9.219607 -11.27765,-36.264643 -15.51418,-47.854467 -0.70366,-1.925 -1.5687,-5.4125 -1.92229,-7.7499999 l -0.64291,-4.25 62.26182,0.026977 62.26182,0.026977 4.87604,15.2230229 c 2.68182,8.372663 5.26047,16.123023 5.73032,17.223023 0.46986,1.1 1.82106,5.6 3.00265,10 1.1816,4.4 3.40136,11.375 4.93281,15.5 1.53145,4.125 3.33301,9.975 4.00346,13 0.67046,3.025 1.68037,6.390258 2.24426,7.478352 0.56389,1.088093 2.0503,5.588093 3.30313,10 1.25284,4.411906 3.42252,11.171645 4.82152,15.021645 1.39899,3.85 2.55312,7.99088 2.56472,9.20196 l 0.0211,2.20197 -64.25,0.41857 c -35.3375,0.23022 -73.25,0.70391 -84.25,1.05264 -11,0.34873 -47.31983,0.80207 -80.71073,1.0074 -33.3909,0.20534 -61.4034,0.63915 -62.25,0.96402 -2.09683,0.80463 -1.9952,1.6827 1.52243,13.15344 1.68664,5.5 4.22617,13.825 5.6434,18.5 1.41722,4.675 3.38466,10.75 4.37207,13.5 0.98742,2.75 2.10319,6.575 2.4795,8.5 0.93188,4.76694 3.07479,8.7324 5.38794,9.97036 1.05815,0.5663 7.24099,1.03653 13.73965,1.04495 6.49866,0.008 12.31779,0.34592 12.93141,0.75 2.02655,1.33453 5.45052,9.22519 6.52042,15.02658 0.57899,3.13946 1.66302,6.83311 2.40896,8.20811 0.74594,1.375 2.08433,5.15045 2.9742,8.38988 0.88987,3.23943 2.27229,6.88852 3.07203,8.10909 0.79975,1.22057 1.18359,2.92413 0.85298,3.78569 -0.39218,1.02201 0.36625,2.20058 2.18213,3.3909 2.6039,1.70688 6.71068,1.84358 63.73202,2.12146 38.68973,0.18854 61.64058,0.66725 62.84305,1.3108 2.33674,1.25058 3.35442,3.80084 6.34179,15.89218 1.29092,5.225 3.5158,12.35031 4.94416,15.83403 1.42837,3.48372 3.26691,9.10872 4.08565,12.5 1.81588,7.52147 6.02018,21.39514 8.53547,28.16597 1.0216,2.75 2.14913,6.575 2.50564,8.5 0.3565,1.925 1.44951,4.85 2.4289,6.5 0.97939,1.65 2.33337,5.925 3.00884,9.5 0.67548,3.575 1.85936,7.23169 2.63086,8.12597 1.88262,2.18226 2.84354,8.43072 1.43079,9.30384 -0.60877,0.37625 -8.9613,0.77096 -18.56118,0.87714 -11.8831,0.13143 -17.83215,0.57119 -18.63805,1.37776 -0.9117,0.91243 -0.80805,2.12363 0.45096,5.27023 3.32349,8.30621 1.57789,10.13426 -9.35057,9.79225 -4.31727,-0.13512 -8.10958,0.0143 -8.42736,0.33212 -0.75197,0.75197 3.15914,16.20793 4.98895,19.71534 0.77625,1.48794 1.41414,3.23375 1.41753,3.87956 0.003,0.64582 1.58116,5.80576 3.50616,11.46653 1.925,5.66077 3.5,11.11722 3.5,12.12545 0,1.00822 0.67479,3.13804 1.49954,4.73293 0.82475,1.59489 2.14504,5.28504 2.93398,8.20034 0.78894,2.9153 2.55642,8.67554 3.92774,12.80054 1.37132,4.125 3.49142,10.875 4.71134,15 1.21992,4.125 2.71514,8.0381 3.32272,8.69579 1.25246,1.35575 103.15306,3.15511 222.60468,3.93075 38.225,0.24821 70.55341,0.67762 71.84092,0.95425 1.63654,0.35161 2.15792,0.97984 1.73275,2.08783 -0.3345,0.87168 -0.20896,2.09034 0.27896,2.70813 0.48793,0.61779 2.35076,5.84825 4.13963,11.62325 1.78886,5.775 3.63856,11.4 4.11044,12.5 0.47187,1.1 1.81327,5.55736 2.98087,9.90524 1.16761,4.34788 3.25433,10.87288 4.63715,14.5 1.38283,3.62712 3.14555,9.29476 3.91716,12.59476 0.77161,3.3 2.06052,7.67607 2.86426,9.72459 1.36122,3.46944 1.33008,3.79484 -0.45466,4.75 -1.24097,0.66414 -20.89375,1.02541 -55.78175,1.02541 -40.56224,0 -54.16211,0.29637 -55.06574,1.2 -1.57021,1.57021 -1.51847,5.66333 0.11124,8.8 0.7144,1.375 1.89959,4.75 2.63376,7.5 0.73416,2.75 1.99954,6.46543 2.81196,8.25652 1.88801,4.16242 0.67037,5.7887 -4.89286,6.53488 -7.26348,0.97424 -7.26928,1.28882 -0.37265,20.2086 1.80437,4.95 3.57985,10.575 3.9455,12.5 0.82638,4.35057 6.01624,21.30964 9.18826,30.02476 1.30613,3.58862 2.37479,7.3605 2.37479,8.38197 0,1.02146 0.85146,3.26032 1.89213,4.97524 1.04067,1.71491 2.21812,4.69303 2.61657,6.61803 0.39844,1.925 2.76301,9.71791 5.25458,17.31758 5.96853,18.20487 6.91668,17.21776 -16.19452,16.85995 -13.66401,-0.21154 -18.18299,0.0523 -20.99073,1.22542 -3.95937,1.65433 -4.21228,2.24294 -2.20187,5.12454 0.75689,1.08488 1.96924,4.67251 2.6941,7.97251 0.72487,3.3 2.12891,7.35 3.1201,9 2.08899,3.47747 2.31774,6.5919 0.60964,8.3 -0.87109,0.87109 -8.34003,1.2042 -27.25,1.21531 -14.50144,0.009 -26.70887,0.4319 -27.53622,0.95501 -1.2709,0.80356 -1.29512,1.41707 -0.16718,4.23469 0.72548,1.81224 2.36717,7.11999 3.64822,11.79499 3.90385,14.2466 9.54255,31.86391 11.54154,36.0599 0.40873,0.85794 2.03026,6.66168 3.60339,12.8972 2.09808,8.31626 3.56671,12.09748 5.51146,14.1901 l 2.65121,2.8528 h 27.9438 c 31.97302,0 29.78112,-0.63613 32.73389,9.5 0.96133,3.3 2.82157,8.93455 4.13388,12.52121 1.31231,3.58667 2.38601,7.35855 2.38601,8.38197 0,1.02341 0.8509,3.26387 1.89089,4.97879 1.03999,1.71491 2.39993,5.59303 3.02209,8.61803 0.97866,4.75835 9.84991,32.77149 12.19225,38.5 0.44978,1.1 1.55992,4.7 2.46699,8 0.90706,3.3 2.07146,6.45 2.58755,7 0.58842,0.62708 21.71045,1.25609 56.63929,1.6867 30.63552,0.37769 58.85094,0.90883 62.70094,1.18032 3.85,0.27148 12.5125,0.53129 19.25,0.57735 l 12.25,0.0837 v 7.84717 7.84717 l -22.25,0.75736 c -12.2375,0.41654 -29.10036,0.82686 -37.47303,0.9118 -8.60075,0.0873 -15.65834,0.58976 -16.22372,1.15514 -0.66758,0.66758 -0.48999,1.98504 0.5335,3.95782 0.8438,1.62642 2.35777,5.89075 3.36438,9.47628 1.00662,3.58553 2.71547,8.76915 3.79745,11.51915 1.08199,2.75 2.27292,6.9839 2.64652,9.40866 0.3736,2.42477 1.29487,5.57477 2.04727,7 0.75239,1.42524 2.56659,6.64134 4.03153,11.59134 10.31273,34.84634 17.49288,56.71294 19.29119,58.75004 1.37108,1.5531 3.72127,1.75 20.8899,1.75 h 19.34501 v 24.5 24.5 h -14.86043 c -8.17323,0 -16.83573,0.1943 -19.25,0.4317 -2.41426,0.2374 -5.73957,0.066 -7.38957,-0.3817 z"
         id="path102"
         sodipodi:nodetypes="sscsssscssssscscsssssssssssssssssssssssssssssscsssssssssssssssssssssssssssssssssssscsssssssssssssssssssssssssssscccsscssssssscccssssssssscssssssssscsssssssssssssssssssssssscssssssssssssssssssssssssssssssssssssscsssssscsssssssssssscccssssssssssscccssc" />
      <path
         style="fill:#a164a0;stroke:none"
         d="m 586.56728,1273.1987 c -3.64505,-12.4216 -5.09237,-17.0965 -8.28096,-26.7477 -5.37386,-16.2656 -6.24205,-18.9761 -8.48821,-26.5 -2.8383,-9.5074 -2.99158,-12.0706 -0.77277,-12.9221 0.91162,-0.3498 27.57412,-0.6669 59.25,-0.7047 51.31731,-0.061 66.13326,-0.2278 100.77507,-1.1332 5.0504,-0.132 8.6504,0.05 8,0.4042 -0.6504,0.3543 -10.63255,0.8954 -22.18255,1.2024 -11.55,0.307 -21.1125,0.5796 -21.25,0.6058 -0.90411,0.1722 0.007,7.523 1.15723,9.3328 0.77397,1.2181 2.11509,5.7075 2.98025,9.9763 0.86516,4.2688 2.17694,8.9938 2.91505,10.5 0.73812,1.5062 1.93067,4.7635 2.65011,7.2385 0.71944,2.475 2.19446,6.975 3.27784,10 1.08337,3.025 2.34348,7.3 2.80023,9.5 0.45676,2.2 1.74702,6.475 2.86724,9.5 1.12022,3.025 2.05145,6.7375 2.0694,8.25 l 0.0326,2.75 h -62.25 -62.25 l -3.30058,-11.2477 z M 698.13295,1049.701 c -1.79831,-2.0371 -8.97846,-23.9037 -19.29119,-58.75 -1.46494,-4.95 -3.27914,-10.1661 -4.03153,-11.59134 -0.7524,-1.42523 -1.67367,-4.57523 -2.04727,-7 -0.3736,-2.42476 -1.56453,-6.65866 -2.64652,-9.40866 -1.08198,-2.75 -2.79083,-7.93362 -3.79745,-11.51915 -1.00661,-3.58553 -2.52058,-7.84986 -3.36438,-9.47628 -1.02349,-1.97278 -1.20108,-3.29024 -0.5335,-3.95782 0.56538,-0.56538 7.62297,-1.06788 16.22372,-1.15514 8.37267,-0.0849 25.23553,-0.49526 37.47303,-0.9118 l 22.25,-0.75736 v 58.13877 58.13878 h -19.34501 c -17.16863,0 -19.51882,-0.1969 -20.8899,-1.75 z m 23.05748,-129.76076 c -1.08972,-1.08972 -20.7054,-1.68324 -77.52351,-2.34567 -34.65325,-0.40401 -55.55022,-1.0158 -56.13929,-1.64357 -0.51609,-0.55 -1.68049,-3.7 -2.58755,-7 -0.90707,-3.3 -2.01721,-6.9 -2.46699,-8 -2.34234,-5.72851 -11.21359,-33.74165 -12.19225,-38.5 -0.62216,-3.025 -1.9821,-6.90312 -3.02209,-8.61803 -1.03999,-1.71492 -1.89089,-3.95538 -1.89089,-4.97879 0,-1.02342 -1.0737,-4.7953 -2.38601,-8.38197 -1.31231,-3.58666 -3.17255,-9.22121 -4.13388,-12.52121 -2.95277,-10.13613 -0.76087,-9.5 -32.73389,-9.5 h -27.9438 l -2.65121,-2.8528 c -1.94475,-2.09262 -3.41338,-5.87384 -5.51146,-14.1901 -1.57313,-6.23552 -3.19466,-12.03926 -3.60339,-12.8972 -1.99899,-4.19599 -7.63769,-21.8133 -11.54154,-36.0599 -1.28105,-4.675 -2.92274,-9.98275 -3.64822,-11.79499 -1.12794,-2.81762 -1.10372,-3.43113 0.16718,-4.23469 0.82735,-0.52311 13.03478,-0.94648 27.53622,-0.95501 18.90997,-0.0111 26.37891,-0.34422 27.25,-1.21531 1.7081,-1.7081 1.47935,-4.82253 -0.60964,-8.3 -0.99119,-1.65 -2.39523,-5.7 -3.1201,-9 -0.72486,-3.3 -1.93721,-6.88763 -2.6941,-7.97251 -2.01041,-2.8816 -1.7575,-3.47021 2.20187,-5.12454 2.80774,-1.17315 7.32672,-1.43696 20.99073,-1.22542 23.1112,0.35781 22.16305,1.34492 16.19452,-16.85995 -2.49157,-7.59967 -4.85614,-15.39258 -5.25458,-17.31758 -0.39845,-1.925 -1.5759,-4.90312 -2.61657,-6.61803 -1.04067,-1.71492 -1.89213,-3.95378 -1.89213,-4.97524 0,-1.02147 -1.06866,-4.79335 -2.37479,-8.38197 -3.17202,-8.71512 -8.36188,-25.67419 -9.18826,-30.02476 -0.36565,-1.925 -2.14113,-7.55 -3.9455,-12.5 -6.89663,-18.91978 -6.89083,-19.23436 0.37265,-20.2086 5.56323,-0.74618 6.78087,-2.37246 4.89286,-6.53488 -0.81242,-1.79109 -2.0778,-5.50652 -2.81196,-8.25652 -0.73417,-2.75 -1.91936,-6.125 -2.63376,-7.5 -1.62971,-3.13667 -1.68145,-7.22979 -0.11124,-8.8 0.90363,-0.90363 14.5035,-1.2 55.06574,-1.2 34.888,0 54.54078,-0.36127 55.78174,-1.02541 1.78474,-0.95516 1.81588,-1.28056 0.45466,-4.75 -0.80374,-2.04852 -2.09265,-6.42459 -2.86426,-9.72459 -0.77161,-3.3 -2.53433,-8.96764 -3.91716,-12.59476 -1.38282,-3.62712 -3.46954,-10.15212 -4.63715,-14.5 -1.1676,-4.34788 -2.509,-8.80524 -2.98087,-9.90524 -0.47188,-1.1 -2.32158,-6.725 -4.11044,-12.5 -1.78887,-5.775 -3.6517,-11.00546 -4.13963,-11.62325 -0.48792,-0.61779 -0.61346,-1.83645 -0.27896,-2.70813 0.42517,-1.10799 -0.0962,-1.73622 -1.73275,-2.08783 -1.28751,-0.27663 -33.61592,-0.70604 -71.84092,-0.95425 -119.45162,-0.77564 -221.35222,-2.575 -222.60468,-3.93075 -0.60758,-0.65769 -2.1028,-4.57079 -3.32272,-8.69579 -1.21992,-4.125 -3.34002,-10.875 -4.71134,-15 -1.37132,-4.125 -3.1388,-9.88524 -3.92774,-12.80054 -0.78894,-2.9153 -2.10923,-6.60545 -2.93398,-8.20034 -0.82475,-1.59489 -1.49954,-3.72471 -1.49954,-4.73293 0,-1.00823 -1.575,-6.46468 -3.5,-12.12545 -1.925,-5.66077 -3.50277,-10.82071 -3.50616,-11.46653 -0.003,-0.64581 -0.64128,-2.39162 -1.41753,-3.87956 -1.82981,-3.50741 -5.74092,-18.96337 -4.98895,-19.71534 0.31778,-0.31778 4.11009,-0.46724 8.42736,-0.33212 10.92846,0.34201 12.67406,-1.48604 9.35057,-9.79225 -1.25901,-3.1466 -1.36266,-4.3578 -0.45096,-5.27023 0.8059,-0.80657 6.75495,-1.24633 18.63805,-1.37776 9.59988,-0.10618 17.95241,-0.50089 18.56118,-0.87714 1.41275,-0.87312 0.45183,-7.12158 -1.43079,-9.30384 -0.7715,-0.89428 -1.95538,-4.55097 -2.63086,-8.12597 -0.67547,-3.575 -2.02945,-7.85 -3.00884,-9.5 -0.97939,-1.65 -2.0724,-4.575 -2.4289,-6.5 -0.35651,-1.925 -1.48404,-5.75 -2.50564,-8.5 -2.51529,-6.77083 -6.71959,-20.6445 -8.53547,-28.16597 -0.81874,-3.39128 -2.65728,-9.01628 -4.08565,-12.5 -1.42836,-3.48372 -3.65324,-10.60903 -4.94416,-15.83403 -2.98737,-12.09134 -4.00505,-14.6416 -6.34179,-15.89218 -1.20247,-0.64355 -24.15332,-1.12226 -62.84305,-1.3108 -57.02134,-0.27788 -61.12812,-0.41458 -63.73202,-2.12146 -1.81588,-1.19032 -2.57431,-2.36889 -2.18213,-3.3909 0.33061,-0.86156 -0.0532,-2.56512 -0.85298,-3.78569 -0.79974,-1.22057 -2.18216,-4.86966 -3.07203,-8.10909 -0.88987,-3.23943 -2.22826,-7.01488 -2.9742,-8.38988 -0.74594,-1.375 -1.82997,-5.06865 -2.40896,-8.20811 -1.0699,-5.80139 -4.49387,-13.69205 -6.52042,-15.02658 -0.61362,-0.40408 -6.43275,-0.74158 -12.93141,-0.75 -6.49866,-0.008 -12.6815,-0.47865 -13.73965,-1.04495 -2.31315,-1.23796 -4.45606,-5.20342 -5.38794,-9.97036 -0.37631,-1.925 -1.49208,-5.75 -2.4795,-8.5 -0.98741,-2.75 -2.95485,-8.825 -4.37207,-13.5 -1.41723,-4.675 -3.95676,-13 -5.6434,-18.5 -3.51763,-11.47074 -3.61926,-12.34881 -1.52243,-13.15344 0.8466,-0.32487 28.8591,-0.75868 62.25,-0.96402 33.3909,-0.20533 69.71073,-0.65867 80.71073,-1.0074 11,-0.34873 48.9125,-0.82242 84.25,-1.05264 l 64.25,-0.41857 -0.0211,-2.20197 c -0.0116,-1.21108 -1.16573,-5.35196 -2.56472,-9.20196 -1.399,-3.85 -3.56868,-10.609739 -4.82152,-15.021645 -1.25283,-4.411907 -2.73924,-8.911907 -3.30313,-10 -0.56388,-1.088094 -1.57379,-4.453352 -2.24425,-7.478352 -0.67045,-3.025 -2.47201,-8.875 -4.00346,-13 -1.53145,-4.125 -3.75121,-11.1 -4.93281,-15.5 -1.18159,-4.4 -2.52499,-8.9 -2.98532,-10 -1.6771,-4.007572 -10.12369,-30.1142392 -10.12369,-31.2902442 0,-0.9337819 14.31475,-1.2034508 62.75,-1.1821176 l 62.75,0.027638 3.19643,10.2223618 c 1.75804,5.622299 3.50197,11.797362 3.8754,13.722362 0.37344,1.925 1.48544,5.075 2.47111,7 0.98568,1.925 3.00123,7.55 4.479,12.5 2.80737,9.403626 5.25236,17.336576 12.79058,41.5 2.48794,7.975 5.42615,17.424997 6.52935,20.999997 1.30474,4.22813 1.66572,6.84952 1.03277,7.5 -0.61624,0.63332 -18.83046,1.08392 -49.67384,1.22887 -26.78544,0.12587 -67.1508,0.77973 -89.7008,1.453 -37.76779,1.12763 -77.36584,1.66351 -131.125,1.77451 l -21.125,0.0436 -0.62863,3.14316 c -0.34575,1.72874 -0.22376,3.64124 0.27108,4.25 1.11708,1.37424 6.468,16.76577 9.02961,25.97301 1.05065,3.77639 2.398,7.35389 2.99411,7.95 0.59611,0.59611 1.08383,1.9725 1.08383,3.05865 0,2.83415 4.93704,16.83334 6.59506,18.70056 1.10604,1.24562 3.93972,1.61972 13.5371,1.78718 6.67604,0.11648 12.89433,0.61644 13.81845,1.111 2.43037,1.3007 13.03931,30.85756 14.61688,40.72311 0.53457,3.34303 1.26943,4.35719 4.28881,5.91881 3.44116,1.77977 6.95108,1.89138 63.1437,2.00788 39.30971,0.0815 60.396,0.48314 62.14049,1.18361 2.69725,1.08305 3.84068,3.95136 9.44029,23.68099 0.93472,3.29338 2.06005,6.66838 2.50074,7.5 0.44068,0.83162 1.55671,4.21204 2.48007,7.51204 0.92336,3.3 2.95186,9.7072 4.50777,14.23822 2.49447,7.2642 7.60161,23.92445 11.42245,37.26178 0.70903,2.475 2.46343,7.60356 3.89867,11.3968 2.87748,7.605 3.21731,10.59541 1.40952,12.4032 -0.84345,0.84345 -6.48889,1.2 -19,1.2 -17.14407,0 -17.8,0.0738 -17.8,2.00362 0,1.102 0.89313,3.67001 1.98473,5.7067 1.7142,3.19833 1.80062,3.98159 0.63402,5.74638 -1.11923,1.69313 -2.73111,2.12899 -9.40568,2.5433 -4.43024,0.275 -8.38421,0.83116 -8.7866,1.23591 -1.20094,1.20798 -0.68035,6.05518 0.99496,9.26409 0.86144,1.65 1.56902,3.76398 1.57241,4.69773 0.003,0.93375 1.33846,5.43375 2.96682,10 1.62837,4.56625 3.6717,11.44673 4.54074,15.28997 0.86904,3.84323 2.16448,7.89323 2.87876,9 0.71428,1.10676 1.60394,3.5873 1.97702,5.5123 0.37308,1.925 1.74926,6.425 3.05817,10 2.87249,7.84556 6.95206,20.7371 8.63615,27.29043 0.67708,2.63473 2.00292,5.20351 2.94631,5.7084 0.95298,0.51002 29.88753,1.19372 65.10872,1.53847 34.86641,0.34128 71.69398,-0.6984 81.31898,-0.38832 9.625,0.31008 44.63699,2.32817 78.32449,2.56257 l 61.25,0.42617 v 40.9632 40.9632 l -38.75,-0.0651 c -21.3125,-0.0358 -39.28218,-0.0502 -39.93261,-0.0321 -2.19426,0.0613 -2.42996,3.89801 -0.53632,8.73008 1.82147,4.64789 5.90044,16.13587 6.88964,19.40388 0.68066,2.2487 -2.53171,5.16869 -4.98146,4.52807 -3.09995,-0.81066 -5.69067,1.08556 -5.67843,4.15619 0.0107,2.67394 1.78783,9.32148 3.80021,14.21482 0.56546,1.375 1.74923,4.975 2.63058,8 0.88136,3.025 3.59717,11.8 6.03514,19.5 2.43797,7.7 5.61333,18.05 7.05635,23 1.44303,4.95 3.4271,11.25 4.40906,14 5.79083,16.21735 9.98521,30.97263 9.06574,31.8921 -1.5489,1.5489 -11.08821,2.43103 -27.28928,2.52352 -12.47521,0.0712 -14.87565,0.33001 -15.38553,1.65873 -0.61165,1.59395 0.0348,4.16258 4.30166,17.09362 3.02678,9.17278 3.05166,11.91482 0.11525,12.70174 -1.2375,0.33164 -13.0725,0.60913 -26.3,0.61664 -17.35628,0.01 -24.38399,0.34764 -25.25,1.21365 -1.43273,1.43273 -1.55696,6.16345 -0.27065,10.3066 0.51114,1.64637 2.92817,8.8434 5.37117,15.9934 2.44301,7.15 4.76155,14.7747 5.15232,16.94378 0.39077,2.16908 1.5218,5.54408 2.5134,7.5 2.32031,4.57678 7.05627,18.99144 7.04355,21.43819 -0.0144,2.76932 3.77352,8.41448 6.15288,9.16966 1.13484,0.36019 14.1464,0.72092 28.91456,0.80163 23.56752,0.12879 27.05437,0.34991 28.5126,1.80807 1.55154,1.55147 7.09645,18.29756 11.37012,34.33867 1.02571,3.85 3.88262,12.85 6.34869,20 2.46607,7.15 4.79222,14.7747 5.16922,16.94378 0.37701,2.16908 1.50355,5.54408 2.50343,7.5 0.99987,1.95592 2.61598,6.25622 3.59135,9.55622 0.97538,3.3 2.45655,6.5625 3.29151,7.25 0.98853,0.81395 5.02706,1.25534 11.57698,1.26531 5.53238,0.008 10.73387,0.45153 11.55887,0.98469 1.05454,0.6815 -0.43031,0.97798 -5,0.99834 -3.575,0.0159 -7.41144,0.27388 -8.52543,0.57322 -1.11398,0.29934 -2.30738,0.26229 -2.652,-0.0823 z"
         id="path100"
         sodipodi:nodetypes="csssssssssssssssscccccsssssssssscccssssssssssssscsssssssssssssssssssssssssssssssssssssssssssscsssssssssssssssssssssssscssssssssscsssssssssscsssssssssscsssssssssssssssssssssssssscsssssssssscccscsssssssssssssssssssssssssssssscsssss" />
      <path
         style="fill:#b35498;stroke:none"
         d="m 714.33521,1281.701 c -0.018,-1.5125 -0.94918,-5.225 -2.0694,-8.25 -1.12022,-3.025 -2.41048,-7.3 -2.86724,-9.5 -0.45675,-2.2 -1.71686,-6.475 -2.80023,-9.5 -1.08338,-3.025 -2.5584,-7.525 -3.27784,-10 -0.71944,-2.475 -1.91199,-5.7323 -2.65011,-7.2385 -0.73811,-1.5062 -2.04989,-6.2312 -2.91505,-10.5 -0.86516,-4.2688 -2.20628,-8.7582 -2.98025,-9.9763 -1.14891,-1.8083 -2.0637,-9.1799 -1.15723,-9.3253 0.1375,-0.022 9.025,-0.2561 19.75,-0.5202 10.725,-0.264 20.7375,-0.6847 22.25,-0.9349 l 2.75,-0.4548 v 39.475 39.475 h -12 -12 l -0.0326,-2.75 z m 11.3281,-364.18536 c -6.16251,-0.31055 -11.59548,-1.01464 -12.07328,-1.56464 -0.4778,-0.55 -1.66843,-3.7 -2.64583,-7 -0.9774,-3.3 -2.59518,-7.6003 -3.59505,-9.55622 -0.99988,-1.95592 -2.12642,-5.33092 -2.50343,-7.5 -0.377,-2.16908 -2.70315,-9.79378 -5.16922,-16.94378 -2.46607,-7.15 -5.32298,-16.15 -6.34869,-20 -4.27367,-16.04111 -9.81858,-32.7872 -11.37012,-34.33867 -1.45823,-1.45816 -4.94508,-1.67928 -28.5126,-1.80807 -14.76816,-0.0807 -27.77972,-0.44144 -28.91456,-0.80163 -2.37936,-0.75518 -6.16728,-6.40034 -6.15288,-9.16966 0.0127,-2.44675 -4.72324,-16.86141 -7.04355,-21.43819 -0.9916,-1.95592 -2.12263,-5.33092 -2.5134,-7.5 -0.39077,-2.16908 -2.70931,-9.79378 -5.15232,-16.94378 -2.443,-7.15 -4.86003,-14.34703 -5.37117,-15.9934 -1.28631,-4.14315 -1.16208,-8.87387 0.27065,-10.3066 0.86601,-0.86601 7.89372,-1.2038 25.25,-1.21365 13.2275,-0.008 25.0625,-0.285 26.3,-0.61664 2.93641,-0.78692 2.91153,-3.52896 -0.11525,-12.70174 -4.26691,-12.93104 -4.91331,-15.49967 -4.30166,-17.09362 0.50988,-1.32872 2.91032,-1.58752 15.38553,-1.65873 16.20107,-0.0925 25.74038,-0.97462 27.28928,-2.52352 0.91947,-0.91947 -3.27491,-15.67475 -9.06574,-31.8921 -0.98196,-2.75 -2.96603,-9.05 -4.40906,-14 -1.44302,-4.95 -4.61838,-15.3 -7.05635,-23 -2.43797,-7.7 -5.15378,-16.475 -6.03514,-19.5 -0.88135,-3.025 -2.06512,-6.625 -2.63058,-8 -2.01238,-4.89334 -3.78954,-11.54088 -3.80021,-14.21482 -0.0122,-3.07063 2.57848,-4.96685 5.67843,-4.15619 2.44975,0.64062 5.66212,-2.27937 4.98146,-4.52807 -0.9892,-3.26801 -5.06817,-14.75599 -6.88964,-19.40388 -1.90339,-4.85695 -1.71036,-8.22824 0.507,-8.85466 0.66656,-0.18831 18.64943,-0.21949 39.96193,-0.0693 l 38.75,0.27308 v 90.97692 90.97692 h -6.87756 c -10.0155,0 -10.453,0.8689 -6.23186,12.37701 1.84046,5.01764 4.17122,12.91666 5.17947,17.55337 1.00824,4.63671 3.09245,10.71171 4.63156,13.5 l 2.79839,5.06962 0.28348,67.25 c 0.15592,36.9875 -0.0691,67.16659 -0.5,67.06464 -0.43091,-0.10194 -5.82553,-0.43944 -11.98803,-0.75 z M 625.20454,470.95435 c -0.6903,-0.6903 -36.5623,-1.35023 -109.21512,-2.00921 -34.83217,-0.31593 -62.63472,-0.966 -63.60872,-1.48727 -0.95165,-0.50931 -2.28426,-3.08171 -2.96134,-5.71644 -1.68409,-6.55333 -5.76366,-19.44487 -8.63615,-27.29043 -1.30891,-3.575 -2.68509,-8.075 -3.05817,-10 -0.37308,-1.925 -1.26274,-4.40554 -1.97702,-5.5123 -0.71428,-1.10677 -2.00972,-5.15677 -2.87876,-9 -0.86904,-3.84324 -2.91237,-10.72372 -4.54074,-15.28997 -1.62836,-4.56625 -2.96343,-9.06625 -2.96682,-10 -0.003,-0.93375 -0.71097,-3.04773 -1.57241,-4.69773 -1.67531,-3.20891 -2.1959,-8.05611 -0.99496,-9.26409 0.40239,-0.40475 4.35636,-0.96091 8.7866,-1.23591 6.67457,-0.41431 8.28645,-0.85017 9.40568,-2.5433 1.1666,-1.76479 1.08018,-2.54805 -0.63402,-5.74638 -1.0916,-2.03669 -1.98473,-4.6047 -1.98473,-5.7067 0,-1.92979 0.65593,-2.00362 17.8,-2.00362 12.51111,0 18.15655,-0.35655 19,-1.2 1.80779,-1.80779 1.46796,-4.7982 -1.40952,-12.4032 -1.43524,-3.79324 -3.18964,-8.9218 -3.89867,-11.3968 -3.82084,-13.33733 -8.92798,-29.99758 -11.42245,-37.26178 -1.55591,-4.53102 -3.58441,-10.93822 -4.50777,-14.23822 -0.92336,-3.3 -2.03939,-6.68042 -2.48007,-7.51204 -0.44069,-0.83162 -1.56602,-4.20662 -2.50074,-7.5 -5.59961,-19.72963 -6.74304,-22.59794 -9.44029,-23.68099 -1.74449,-0.70047 -22.83078,-1.10211 -62.14049,-1.18361 -56.19262,-0.1165 -59.70254,-0.22811 -63.1437,-2.00788 -3.01938,-1.56162 -3.75424,-2.57578 -4.28881,-5.91881 -1.57757,-9.86555 -12.18651,-39.42241 -14.61688,-40.72311 -0.92412,-0.49456 -7.14241,-0.99452 -13.81845,-1.111 -9.59738,-0.16746 -12.43106,-0.54156 -13.5371,-1.78718 -1.65802,-1.86722 -6.59506,-15.86641 -6.59506,-18.70056 0,-1.08615 -0.48772,-2.46254 -1.08383,-3.05865 -0.59611,-0.59611 -1.94346,-4.17361 -2.99411,-7.95 -2.56161,-9.20724 -7.91253,-24.59877 -9.02961,-25.97301 -0.49484,-0.60876 -0.61683,-2.52126 -0.27108,-4.25 l 0.62863,-3.14316 21.125,-0.0436 c 53.75916,-0.111 93.35721,-0.64688 131.125,-1.77451 22.55,-0.67327 62.91536,-1.32713 89.7008,-1.453 30.84338,-0.14495 49.0576,-0.59555 49.67384,-1.22887 0.63295,-0.65048 0.27197,-3.27187 -1.03277,-7.5 -1.1032,-3.575 -4.04141,-13.024997 -6.52935,-20.999997 -7.53822,-24.163424 -9.98321,-32.096374 -12.79058,-41.5 -1.47777,-4.95 -3.513,-10.600299 -4.52273,-12.556219 -1.00973,-1.955921 -2.14763,-5.330921 -2.52867,-7.5 -0.38103,-2.16908 -1.99278,-7.692136 -3.58166,-12.273459 -1.58888,-4.581343 -2.88888,-8.9688432 -2.88888,-9.7500202 0,-1.2121464 9.28367,-1.4203217 63.33985,-1.4203217 h 63.33984 l 1.29368,7.2389639 c 0.71152,3.98143 1.8833,8.14393 2.60396,9.25 1.15932,1.77932 4.45223,13.02764 7.79132,26.614542 0.62224,2.531929 1.67957,5.260833 2.34962,6.064232 0.67005,0.803399 1.88783,4.131821 2.70618,7.396493 1.73392,6.917209 4.70387,16.260207 8.08551,25.435769 1.31757,3.575 2.69889,7.85 3.06961,9.5 0.37072,1.65 2.02042,7.184057 3.666,12.297887 1.64559,5.11385 2.67652,9.61385 2.29097,10 -0.38556,0.38616 -32.7265,1.00291 -71.86877,1.37056 -39.14228,0.36765 -100.41777,1.13986 -136.16777,1.71603 -35.75,0.57617 -69.3875,1.06286 -74.75,1.08155 l -9.75,0.034 v 3.3 c 0,1.815 0.46558,3.76558 1.03462,4.33462 0.56905,0.56905 1.91038,4.70128 2.98075,9.18274 1.07037,4.48147 2.40292,8.94339 2.96121,9.91538 0.5583,0.97199 1.90436,4.91726 2.99124,8.76726 4.85697,17.20458 7.19896,24.17331 8.90591,26.5 1.76264,2.40261 2.35992,2.51948 15.33152,3 8.73578,0.32361 14.03303,0.94598 15.01565,1.76419 1.88956,1.5734 4.17917,7.87737 5.71524,15.73581 0.64505,3.3 1.55329,6.9 2.01831,8 0.46503,1.1 1.62741,4.7 2.58307,8 0.95566,3.3 2.08255,6.45 2.5042,7 0.42166,0.55 0.92226,2.12079 1.11246,3.49063 0.76018,5.47493 1.00788,5.49618 65.9468,5.65663 67.10078,0.16579 65.08377,-0.0491 66.32159,7.06745 0.89015,5.11774 3.70588,14.52252 4.76526,15.91637 0.47282,0.62209 1.53223,3.77209 2.35425,7 0.82202,3.22791 2.11308,7.21892 2.86902,8.86892 0.75593,1.65 1.82758,4.8 2.38143,7 3.05547,12.13694 6.47752,23.2632 7.75423,25.21171 0.79928,1.21986 1.45324,3.24319 1.45324,4.4963 0,1.25311 2.75253,10.31284 6.11674,20.13274 5.52764,16.13481 5.96729,18.00379 4.56505,19.40603 -1.27424,1.27424 -4.64751,1.56969 -18.86673,1.65245 l -17.31506,0.10077 0.0435,4.5 c 0.0239,2.475 0.24891,5.85 0.5,7.5 l 0.45653,3 -7.63114,0.28992 c -6.1318,0.23297 -7.98762,0.68382 -9.44545,2.29471 -2.04818,2.26321 -2.15095,1.71305 4.00032,21.41537 1.88888,6.05 4.42601,14.375 5.63807,18.5 1.21206,4.125 2.58573,8.4 3.05259,9.5 2.13787,5.03713 6.85481,20.44228 7.50173,24.5 0.39458,2.475 1.70927,6.75 2.92152,9.5 1.21225,2.75 2.52888,6.48949 2.92585,8.30997 0.49608,2.275 1.52919,3.61695 3.30401,4.29173 1.51847,0.57732 26.50683,1.20452 60.65737,1.52249 31.94132,0.29739 67.30013,0.88214 78.57513,1.29945 16.38496,0.60643 9.14182,0.79061 -36.08333,0.91755 -31.12084,0.0873 -56.80683,-0.0647 -57.07999,-0.33784 z"
         id="path98" />
      <path
         style="fill:#c64291;stroke:none"
         d="m 737.36786,785.54329 c 0,-1.04925 -1.14677,-4.11807 -2.54839,-6.81962 -1.40161,-2.70155 -3.37332,-8.70558 -4.38156,-13.34229 -1.00825,-4.63671 -3.33901,-12.53573 -5.17947,-17.55337 C 721.0373,736.3199 721.4748,735.451 731.4903,735.451 h 6.87756 v 26 c 0,14.3 -0.225,26 -0.5,26 -0.275,0 -0.5,-0.85847 -0.5,-1.90771 z M 707.28425,470.03406 c -0.22931,-0.22932 -28.56444,-0.65629 -62.96695,-0.94882 -37.52654,-0.3191 -63.59299,-0.92842 -65.1571,-1.52309 -1.80041,-0.68452 -2.83041,-2.01537 -3.32885,-4.30118 -0.39697,-1.82048 -1.7136,-5.55997 -2.92585,-8.30997 -1.21225,-2.75 -2.52694,-7.025 -2.92152,-9.5 -0.64692,-4.05772 -5.36386,-19.46287 -7.50173,-24.5 -0.46686,-1.1 -1.84053,-5.375 -3.05259,-9.5 -1.21206,-4.125 -3.74919,-12.45 -5.63807,-18.5 -6.15127,-19.70232 -6.0485,-19.15216 -4.00032,-21.41537 1.45783,-1.61089 3.31365,-2.06174 9.44545,-2.29471 l 7.63114,-0.28992 -0.45653,-3 c -0.25109,-1.65 -0.47609,-5.025 -0.5,-7.5 l -0.0435,-4.5 17.31506,-0.10077 c 14.21922,-0.0828 17.59249,-0.37821 18.86673,-1.65245 1.40224,-1.40224 0.96259,-3.27122 -4.56505,-19.40603 -3.36418,-9.8199 -6.11671,-18.87963 -6.11671,-20.13274 0,-1.25311 -0.65396,-3.27644 -1.45324,-4.4963 -1.27671,-1.94851 -4.69876,-13.07477 -7.75423,-25.21171 -0.55385,-2.2 -1.6255,-5.35 -2.38143,-7 -0.75594,-1.65 -2.047,-5.64101 -2.86902,-8.86892 -0.82202,-3.22791 -1.88143,-6.37791 -2.35425,-7 -1.05938,-1.39385 -3.87511,-10.79863 -4.76526,-15.91637 -1.23782,-7.1166 0.77919,-6.90166 -66.32159,-7.06745 -64.93892,-0.16045 -65.18662,-0.1817 -65.9468,-5.65663 -0.1902,-1.36984 -0.6908,-2.94063 -1.11246,-3.49063 -0.42165,-0.55 -1.54854,-3.7 -2.5042,-7 -0.95566,-3.3 -2.11804,-6.9 -2.58307,-8 -0.46502,-1.1 -1.37326,-4.7 -2.01831,-8 -1.53607,-7.85844 -3.82568,-14.16241 -5.71524,-15.73581 -0.98262,-0.81821 -6.27987,-1.44058 -15.01565,-1.76419 -12.9716,-0.48052 -13.56888,-0.59739 -15.33152,-3 -1.70695,-2.32669 -4.04894,-9.29542 -8.90591,-26.5 -1.08688,-3.85 -2.43294,-7.79527 -2.99124,-8.76726 -0.55829,-0.97199 -1.89084,-5.43391 -2.96121,-9.91538 -1.07037,-4.48146 -2.4117,-8.61369 -2.98075,-9.18274 -0.56904,-0.56904 -1.03462,-2.51962 -1.03462,-4.33462 v -3.3 l 9.75,-0.034 c 5.3625,-0.0187 39,-0.50538 74.75,-1.08155 35.75,-0.57617 97.02549,-1.34838 136.16777,-1.71603 39.14227,-0.36765 71.48321,-0.9844 71.86877,-1.37056 0.38555,-0.38615 -0.64538,-4.88615 -2.29097,-10 -1.64558,-5.11383 -3.29528,-10.647887 -3.666,-12.297887 -0.37072,-1.65 -1.75204,-5.925 -3.06961,-9.5 -3.38164,-9.175562 -6.35159,-18.51856 -8.08551,-25.435769 -0.81835,-3.264672 -2.03613,-6.593094 -2.70618,-7.396493 -0.67005,-0.803399 -1.72738,-3.532303 -2.34962,-6.064232 -3.20202,-13.029115 -6.59999,-24.707766 -7.86004,-27.01452 -1.33913,-2.451515 -3.50861,-11.5027622 -3.50861,-14.638177 0,-1.2492826 7.29164,-1.4507789 52.5,-1.4507789 h 52.5 V 61.875202 119.2994 l -37.25,0.47685 c -20.4875,0.26226 -43.775,0.50738 -51.75,0.54471 -7.975,0.0373 -18.04624,0.52825 -22.38053,1.09095 -4.51202,0.58578 -32.71847,1.05864 -65.9881,1.10626 -38.89795,0.0557 -58.52474,0.42937 -59.36947,1.13044 -1.76933,1.46841 -1.5184,4.63088 0.7381,9.30239 1.06268,2.2 1.94741,4.51948 1.96607,5.1544 0.0187,0.63492 2.06326,7.60992 4.54356,15.5 2.48029,7.89008 5.4409,17.4956 6.57913,21.3456 3.45496,11.68622 2.97642,11.11738 9.96727,11.84807 3.43054,0.35856 9.9266,0.65193 14.43567,0.65193 10.72382,0 10.131,-0.68848 15.06855,17.5 0.89584,3.3 1.97671,6.45 2.40195,7 1.24565,1.6111 3.87749,10.60811 4.58959,15.68957 0.36144,2.57926 1.39766,5.34703 2.30269,6.15061 3.78854,3.36382 9.1919,3.64862 69.32813,3.65424 l 59.68261,0.006 0.68567,2.25 c 0.37712,1.2375 1.24828,2.925 1.93591,3.75 0.68762,0.825 1.96306,4.875 2.83429,9 1.96137,9.28642 5.21165,20.52507 8.31771,28.76052 1.29866,3.44329 2.3612,7.05566 2.3612,8.02749 0,0.97184 0.73337,2.81402 1.62972,4.09373 0.89635,1.27971 2.02147,4.19234 2.50027,6.4725 1.22453,5.83146 5.69382,19.83553 9.0401,28.32624 1.55645,3.94927 2.83159,8.44927 2.83365,10 0.002,1.55074 0.90205,4.2929 2,6.09369 4.85092,7.95624 2.55357,9.15422 -17.6313,9.19403 -18.06842,0.0356 -19.14958,0.41416 -17.91571,6.27264 0.37753,1.79254 0.76671,4.83416 0.86484,6.75916 l 0.17843,3.5 -9.5,0.5 -9.5,0.5 0.31549,2.9263 c 0.17351,1.60946 0.96101,4.17461 1.75,5.70034 0.78898,1.52572 1.43451,3.82126 1.43451,5.10119 0,1.27994 0.61706,3.21479 1.37125,4.29966 0.75419,1.08488 2.34951,6.02251 3.54517,10.97251 1.19565,4.95 3.22882,11.925 4.51814,15.5 1.28933,3.575 4.47009,13.25 7.06836,21.5 2.59828,8.25 5.72109,18.15 6.93958,22 1.61611,5.10634 2.87038,7.33417 4.63647,8.23526 1.57039,0.80124 7.33998,1.24582 16.42103,1.26531 7.7,0.0165 14.675,0.46627 15.5,0.99943 1.00403,0.64886 -3.65253,0.97444 -14.08333,0.98469 -8.57084,0.008 -15.77096,-0.17231 -16.00028,-0.40163 z"
         id="path96" />
      <path
         style="fill:#da3188;stroke:none"
         d="m 719.1346,474.47245 c -12.12998,-0.43233 -14.02372,-6.8638 -15.11519,-8.02145 -0.77782,-0.825 -2.31617,-4.425 -3.41855,-8 -5.66164,-18.36071 -11.71016,-37.20969 -13.79844,-43 -1.28932,-3.575 -3.32249,-10.55 -4.51814,-15.5 -1.19566,-4.95 -2.79098,-9.88763 -3.54517,-10.97251 -0.75419,-1.08487 -1.37125,-3.01972 -1.37125,-4.29966 0,-1.27993 -0.64553,-3.57547 -1.43451,-5.10119 -0.78899,-1.52573 -1.57649,-4.09088 -1.75,-5.70034 l -0.31549,-2.9263 9.5,-0.5 9.5,-0.5 -0.17843,-3.5 c -0.0981,-1.925 -0.48731,-4.96662 -0.86484,-6.75916 -1.23387,-5.85848 -0.15271,-6.23701 17.91571,-6.27264 20.18487,-0.0398 22.48222,-1.23779 17.6313,-9.19403 -1.09795,-1.80079 -1.99795,-4.54295 -2,-6.09369 -0.002,-1.55073 -1.2772,-6.05073 -2.83365,-10 -3.34628,-8.49071 -7.81557,-22.49478 -9.0401,-28.32624 -0.4788,-2.28016 -1.60392,-5.19279 -2.50027,-6.4725 -0.89635,-1.27971 -1.62972,-3.12189 -1.62972,-4.09373 0,-0.97183 -1.06254,-4.5842 -2.3612,-8.02749 -3.10606,-8.23545 -6.35634,-19.4741 -8.31771,-28.76052 -0.87123,-4.125 -2.14667,-8.175 -2.83429,-9 -0.68763,-0.825 -1.55879,-2.5125 -1.93591,-3.75 l -0.68567,-2.25 -59.68261,-0.006 c -60.13623,-0.006 -65.53959,-0.29042 -69.32813,-3.65424 -0.90503,-0.80358 -1.94125,-3.57135 -2.30269,-6.15061 -0.7121,-5.08146 -3.34394,-14.07847 -4.58959,-15.68957 -0.42524,-0.55 -1.50611,-3.7 -2.40195,-7 -4.93755,-18.18848 -4.34473,-17.5 -15.06855,-17.5 -4.50907,0 -11.00513,-0.29337 -14.43567,-0.65193 -6.99085,-0.73069 -6.51231,-0.16185 -9.96727,-11.84807 -1.13823,-3.85 -4.09884,-13.45552 -6.57913,-21.3456 -2.4803,-7.89008 -4.5249,-14.86508 -4.54356,-15.5 -0.0187,-0.6345 -0.90339,-2.95398 -1.96607,-5.15398 -2.2565,-4.67151 -2.50743,-7.83398 -0.7381,-9.30239 0.84473,-0.70107 20.47152,-1.07478 59.36947,-1.13044 33.26963,-0.0476 61.47608,-0.52048 65.9881,-1.10626 4.33429,-0.5627 14.40553,-1.05363 22.38053,-1.09095 7.975,-0.0373 31.2625,-0.28245 51.75,-0.54471 l 37.25,-0.47685 v 175.0758 c 0,96.29169 2.45819,190.62542 1.037,180.60217 0,0 -11.62585,-0.19682 -20.27026,-0.50492 z"
         id="path94"
         sodipodi:nodetypes="ssssssssscccssssssssssssscsssssssssssssssscsss" />
    </g>
  </g>
</svg>
